<svg width="719" height="340" viewBox="0 0 719 340" fill="none" xmlns="http://www.w3.org/2000/svg">
<g filter="url(#filter0_b)">
<rect width="719" height="340" rx="85" fill="url(#paint0_linear)" fill-opacity="0.5"/>
</g>
<path d="M211.288 169.43C211.288 179.295 209.715 187.849 206.57 195.093C203.472 202.289 199.112 208.008 193.488 212.249L211.359 226.188L199.636 236.768L177.476 219.254C174.569 219.874 171.447 220.184 168.111 220.184C159.724 220.184 152.218 218.135 145.594 214.036C139.017 209.89 133.918 204.004 130.296 196.379C126.722 188.754 124.911 179.962 124.863 170.002V164.14C124.863 153.989 126.65 145.03 130.225 137.262C133.846 129.494 138.922 123.561 145.451 119.462C152.027 115.316 159.533 113.243 167.968 113.243C176.546 113.243 184.1 115.292 190.629 119.391C197.205 123.442 202.281 129.303 205.855 136.976C209.429 144.601 211.24 153.489 211.288 163.64V169.43ZM193.131 163.997C193.131 152.274 190.939 143.386 186.554 137.333C182.17 131.281 175.975 128.255 167.968 128.255C160.2 128.255 154.1 131.329 149.668 137.476C145.284 143.576 143.044 152.202 142.949 163.354V169.43C142.949 180.677 145.141 189.469 149.525 195.808C153.957 202.146 160.153 205.315 168.111 205.315C176.165 205.315 182.337 202.265 186.626 196.165C190.963 190.065 193.131 181.153 193.131 169.43V163.997Z" fill="white" fill-opacity="0.2"/>
<path d="M273.908 218.754H256.609V135.189L231.089 143.91V129.256L271.692 114.315H273.908V218.754Z" fill="white" fill-opacity="0.2"/>
<g clip-path="url(#clip0)">
<path d="M458.998 145.955C469.552 145.955 478.138 136.973 478.138 125.931C478.138 114.89 469.552 105.908 458.998 105.908C448.444 105.908 439.857 114.89 439.857 125.931C439.857 136.973 448.444 145.955 458.998 145.955ZM458.998 113.917C465.33 113.917 470.482 119.307 470.482 125.931C470.482 132.556 465.33 137.946 458.998 137.946C452.665 137.946 447.514 132.556 447.514 125.931C447.514 119.307 452.665 113.917 458.998 113.917Z" fill="#FF9999"/>
<path d="M430.949 235.968C429.075 227.462 422.006 221.009 413.439 220.479C408.442 209.674 396.768 202.928 384.693 204.712C372.072 206.576 361 219.541 361 232.458C361 246.967 373.083 260.491 388.562 260.491H441.772C443.886 260.491 445.6 258.698 445.6 256.486C445.6 254.275 443.886 252.482 441.772 252.482H388.562C377.958 252.482 368.656 243.125 368.656 232.458C368.656 223.571 376.97 213.942 385.763 212.643C393.538 211.494 401.301 215.3 405.375 221.804C402.913 222.804 400.652 224.331 398.761 226.313C397.267 227.878 397.269 230.413 398.765 231.977C399.513 232.757 400.491 233.147 401.47 233.147C402.451 233.147 403.431 232.755 404.179 231.972C406.11 229.949 408.633 228.589 412.296 228.454C418.628 228.454 423.78 233.843 423.78 240.468C423.78 242.68 425.494 244.473 427.608 244.473C438.398 244.473 447.514 235.303 447.514 224.449V210.032H470.482V224.449C470.482 235.303 479.598 244.473 490.388 244.473C492.502 244.473 494.216 242.68 494.216 240.468C494.216 233.843 499.368 228.454 505.693 228.454C509.145 228.566 511.78 229.837 513.818 231.972C515.305 233.531 517.728 233.546 519.231 231.977C520.727 230.414 520.729 227.878 519.235 226.313C517.344 224.331 515.083 222.804 512.621 221.804C516.695 215.301 524.456 211.495 532.234 212.643C541.193 213.965 549.506 223.752 549.341 232.781C549.143 243.46 540.027 252.482 529.434 252.482H476.225C474.111 252.482 472.397 254.275 472.397 256.486C472.397 258.698 474.111 260.491 476.225 260.491H529.435C544.098 260.491 556.719 247.873 556.996 232.935C557.236 219.798 546.165 206.61 533.304 204.712C521.224 202.929 509.553 209.678 504.558 220.479C495.991 221.009 488.922 227.462 487.047 235.968C482.027 234.464 478.139 229.723 478.139 224.448V210.031H481.967C483.886 210.031 485.508 208.545 485.761 206.556L487.36 194.012H504.208C510.941 194.012 516.419 188.282 516.419 181.237C516.419 178.192 515.376 175.24 513.481 172.924L493.203 148.175L495.174 132.708C499.071 102.112 484.841 71.0086 460.968 56.0192C459.756 55.2579 458.241 55.2579 457.028 56.0192C433.15 71.0118 418.927 102.118 422.822 132.709L424.794 148.176L404.515 172.926C402.621 175.24 401.577 178.192 401.577 181.237C401.577 188.282 407.056 194.012 413.789 194.012H430.637L432.236 206.556C432.489 208.545 434.111 210.031 436.03 210.031H439.858V224.448C439.858 229.723 435.97 234.464 430.949 235.968V235.968ZM507.667 178.136C508.374 179 508.763 180.101 508.763 181.238C508.763 183.866 506.72 186.003 504.208 186.003H488.381L491.845 158.826L507.667 178.136ZM458.998 64.1821C464.83 68.192 470.06 73.3886 474.421 79.4766H443.576C447.937 73.3886 453.167 68.192 458.998 64.1821ZM438.621 87.4861H479.376C486.584 101.039 489.498 116.632 487.586 131.65L480.656 186.003H437.34L430.412 131.65C428.499 116.633 431.413 101.04 438.621 87.4861V87.4861ZM413.789 186.003C411.277 186.003 409.234 183.865 409.234 181.237C409.234 180.101 409.623 178.999 410.329 178.137L426.152 158.826L429.616 186.003H413.789ZM438.361 194.012H479.636L478.615 202.022H439.382L438.361 194.012Z" fill="url(#paint1_linear)"/>
<path d="M458.998 260.491C461.112 260.491 462.826 258.698 462.826 256.486C462.826 254.274 461.112 252.481 458.998 252.481C456.884 252.481 455.17 254.274 455.17 256.486C455.17 258.698 456.884 260.491 458.998 260.491Z" fill="#FF9999"/>
</g>
<path d="M663.583 82.5833H634.417V53.4167H649V49.25H634.417C632.104 49.25 630.25 51.125 630.25 53.4167V82.5833C630.25 84.875 632.104 86.75 634.417 86.75H663.583C665.875 86.75 667.75 84.875 667.75 82.5833V68H663.583V82.5833ZM653.167 49.25V53.4167H660.646L640.167 73.8958L643.104 76.8333L663.583 56.3542V63.8333H667.75V49.25H653.167Z" fill="white" fill-opacity="0.15"/>
<defs>
<filter id="filter0_b" x="-100" y="-100" width="919" height="540" filterUnits="userSpaceOnUse" color-interpolation-filters="sRGB">
<feFlood flood-opacity="0" result="BackgroundImageFix"/>
<feGaussianBlur in="BackgroundImage" stdDeviation="50"/>
<feComposite in2="SourceAlpha" operator="in" result="effect1_backgroundBlur"/>
<feBlend mode="normal" in="SourceGraphic" in2="effect1_backgroundBlur" result="shape"/>
</filter>
<linearGradient id="paint0_linear" x1="16" y1="41.5" x2="732.46" y2="435.299" gradientUnits="userSpaceOnUse">
<stop stop-color="#FF9999" stop-opacity="0.65"/>
<stop offset="1" stop-color="#561E1F" stop-opacity="0.2"/>
</linearGradient>
<linearGradient id="paint1_linear" x1="459" y1="55.4482" x2="459" y2="292.5" gradientUnits="userSpaceOnUse">
<stop stop-color="#FF9999"/>
<stop offset="0.4875" stop-color="#FF8A8B"/>
<stop offset="1" stop-color="#561E1F"/>
</linearGradient>
<clipPath id="clip0">
<rect width="196" height="205.046" fill="white" transform="translate(361 55.4463)"/>
</clipPath>
</defs>
</svg>
