<svg width="719" height="340" viewBox="0 0 719 340" fill="none" xmlns="http://www.w3.org/2000/svg">
<g filter="url(#filter0_b)">
<rect width="719" height="340" rx="85" fill="url(#paint0_linear)" fill-opacity="0.5"/>
</g>
<path d="M211.287 169.43C211.287 179.295 209.714 187.849 206.569 195.093C203.471 202.289 199.111 208.008 193.487 212.249L211.358 226.188L199.635 236.768L177.475 219.254C174.568 219.874 171.446 220.184 168.11 220.184C159.723 220.184 152.217 218.135 145.593 214.036C139.016 209.89 133.917 204.004 130.295 196.379C126.721 188.754 124.91 179.962 124.862 170.002V164.14C124.862 153.989 126.649 145.03 130.224 137.262C133.846 129.494 138.921 123.561 145.45 119.462C152.026 115.316 159.532 113.243 167.967 113.243C176.546 113.243 184.099 115.292 190.628 119.391C197.204 123.442 202.28 129.303 205.854 136.976C209.428 144.601 211.239 153.489 211.287 163.64V169.43ZM193.13 163.997C193.13 152.274 190.938 143.386 186.553 137.333C182.169 131.281 175.974 128.255 167.967 128.255C160.199 128.255 154.099 131.329 149.667 137.476C145.283 143.576 143.043 152.202 142.948 163.354V169.43C142.948 180.677 145.14 189.469 149.524 195.808C153.956 202.146 160.152 205.315 168.11 205.315C176.164 205.315 182.336 202.265 186.625 196.165C190.962 190.065 193.13 181.153 193.13 169.43V163.997Z" fill="white" fill-opacity="0.2"/>
<path d="M296.854 218.754H226.87V206.816L261.54 169.001C266.544 163.425 270.095 158.779 272.192 155.062C274.336 151.297 275.408 147.532 275.408 143.767C275.408 138.811 274.003 134.808 271.191 131.758C268.427 128.708 264.686 127.183 259.968 127.183C254.344 127.183 249.984 128.898 246.886 132.329C243.788 135.761 242.24 140.455 242.24 146.412H224.869C224.869 140.074 226.299 134.379 229.158 129.327C232.065 124.228 236.187 120.272 241.525 117.461C246.91 114.649 253.105 113.243 260.111 113.243C270.214 113.243 278.172 115.793 283.987 120.892C289.848 125.944 292.779 132.949 292.779 141.908C292.779 147.103 291.302 152.56 288.347 158.278C285.44 163.949 280.651 170.407 273.979 177.651L248.53 204.886H296.854V218.754Z" fill="white" fill-opacity="0.2"/>
<g clip-path="url(#clip0)">
<path d="M458.998 145.956C469.552 145.956 478.139 136.973 478.139 125.932C478.139 114.891 469.552 105.908 458.998 105.908C448.444 105.908 439.858 114.891 439.858 125.932C439.858 136.973 448.444 145.956 458.998 145.956ZM458.998 113.918C465.331 113.918 470.482 119.307 470.482 125.932C470.482 132.557 465.331 137.946 458.998 137.946C452.666 137.946 447.514 132.557 447.514 125.932C447.514 119.307 452.666 113.918 458.998 113.918Z" fill="#FF9999"/>
<path d="M430.949 235.968C429.075 227.462 422.006 221.009 413.439 220.479C408.442 209.674 396.768 202.928 384.693 204.712C372.072 206.576 361 219.541 361 232.458C361 246.967 373.083 260.491 388.562 260.491H441.772C443.886 260.491 445.6 258.698 445.6 256.486C445.6 254.275 443.886 252.482 441.772 252.482H388.562C377.958 252.482 368.656 243.125 368.656 232.458C368.656 223.571 376.97 213.942 385.763 212.643C393.538 211.494 401.301 215.3 405.375 221.804C402.913 222.804 400.652 224.331 398.761 226.313C397.267 227.878 397.269 230.413 398.765 231.977C399.513 232.757 400.491 233.147 401.47 233.147C402.451 233.147 403.431 232.755 404.179 231.972C406.11 229.949 408.633 228.589 412.296 228.454C418.628 228.454 423.78 233.843 423.78 240.468C423.78 242.68 425.494 244.473 427.608 244.473C438.398 244.473 447.514 235.303 447.514 224.449V210.032H470.482V224.449C470.482 235.303 479.598 244.473 490.388 244.473C492.502 244.473 494.216 242.68 494.216 240.468C494.216 233.843 499.368 228.454 505.693 228.454C509.145 228.566 511.78 229.837 513.818 231.972C515.305 233.531 517.728 233.546 519.231 231.977C520.727 230.414 520.729 227.878 519.235 226.313C517.344 224.331 515.083 222.804 512.621 221.804C516.695 215.301 524.456 211.495 532.234 212.643C541.193 213.965 549.506 223.752 549.341 232.781C549.143 243.46 540.027 252.482 529.434 252.482H476.225C474.111 252.482 472.397 254.275 472.397 256.486C472.397 258.698 474.111 260.491 476.225 260.491H529.435C544.098 260.491 556.719 247.873 556.996 232.935C557.236 219.798 546.165 206.61 533.304 204.712C521.224 202.929 509.553 209.678 504.558 220.479C495.991 221.009 488.922 227.462 487.047 235.968C482.027 234.464 478.139 229.723 478.139 224.448V210.031H481.967C483.886 210.031 485.508 208.545 485.761 206.556L487.36 194.012H504.208C510.941 194.012 516.419 188.282 516.419 181.237C516.419 178.192 515.376 175.24 513.481 172.924L493.203 148.175L495.174 132.708C499.071 102.112 484.841 71.0086 460.968 56.0192C459.756 55.2579 458.241 55.2579 457.028 56.0192C433.15 71.0118 418.927 102.118 422.822 132.709L424.794 148.176L404.515 172.926C402.621 175.24 401.577 178.192 401.577 181.237C401.577 188.282 407.056 194.012 413.789 194.012H430.637L432.236 206.556C432.489 208.545 434.111 210.031 436.03 210.031H439.858V224.448C439.858 229.723 435.97 234.464 430.949 235.968V235.968ZM507.667 178.136C508.374 179 508.763 180.101 508.763 181.238C508.763 183.866 506.72 186.003 504.208 186.003H488.381L491.845 158.826L507.667 178.136ZM458.998 64.1821C464.83 68.192 470.06 73.3886 474.421 79.4766H443.576C447.937 73.3886 453.167 68.192 458.998 64.1821ZM438.621 87.4861H479.376C486.584 101.039 489.498 116.632 487.586 131.65L480.656 186.003H437.34L430.412 131.65C428.499 116.633 431.413 101.04 438.621 87.4861V87.4861ZM413.789 186.003C411.277 186.003 409.234 183.865 409.234 181.237C409.234 180.101 409.623 178.999 410.329 178.137L426.152 158.826L429.616 186.003H413.789ZM438.361 194.012H479.636L478.615 202.022H439.382L438.361 194.012Z" fill="url(#paint1_linear)"/>
<path d="M458.999 260.491C461.113 260.491 462.827 258.698 462.827 256.486C462.827 254.274 461.113 252.481 458.999 252.481C456.884 252.481 455.17 254.274 455.17 256.486C455.17 258.698 456.884 260.491 458.999 260.491Z" fill="#FF9999"/>
</g>
<defs>
<filter id="filter0_b" x="-100" y="-100" width="919" height="540" filterUnits="userSpaceOnUse" color-interpolation-filters="sRGB">
<feFlood flood-opacity="0" result="BackgroundImageFix"/>
<feGaussianBlur in="BackgroundImage" stdDeviation="50"/>
<feComposite in2="SourceAlpha" operator="in" result="effect1_backgroundBlur"/>
<feBlend mode="normal" in="SourceGraphic" in2="effect1_backgroundBlur" result="shape"/>
</filter>
<linearGradient id="paint0_linear" x1="16" y1="41.5" x2="732.46" y2="435.299" gradientUnits="userSpaceOnUse">
<stop stop-color="#FF9999" stop-opacity="0.65"/>
<stop offset="1" stop-color="#561E1F" stop-opacity="0.2"/>
</linearGradient>
<linearGradient id="paint1_linear" x1="459" y1="55.4482" x2="459" y2="292.5" gradientUnits="userSpaceOnUse">
<stop stop-color="#FF9999"/>
<stop offset="0.4875" stop-color="#FF8A8B"/>
<stop offset="1" stop-color="#561E1F"/>
</linearGradient>
<clipPath id="clip0">
<rect width="196" height="205.046" fill="white" transform="translate(361 55.4463)"/>
</clipPath>
</defs>
</svg>
