<svg width="719" height="340" viewBox="0 0 719 340" fill="none" xmlns="http://www.w3.org/2000/svg">
<g filter="url(#filter0_b)">
<rect width="719" height="340" rx="85" fill="url(#paint0_linear)" fill-opacity="0.5"/>
</g>
<path d="M197.287 169.43C197.287 179.295 195.714 187.849 192.569 195.093C189.472 202.289 185.111 208.008 179.488 212.249L197.359 226.188L185.635 236.768L163.475 219.254C160.568 219.874 157.447 220.184 154.111 220.184C145.723 220.184 138.217 218.135 131.593 214.036C125.016 209.89 119.917 204.004 116.295 196.379C112.721 188.754 110.91 179.962 110.863 170.002V164.14C110.863 153.989 112.65 145.03 116.224 137.262C119.846 129.494 124.921 123.561 131.45 119.462C138.027 115.316 145.532 113.243 153.968 113.243C162.546 113.243 170.099 115.292 176.628 119.391C183.205 123.442 188.28 129.303 191.854 136.976C195.429 144.601 197.239 153.489 197.287 163.64V169.43ZM179.13 163.997C179.13 152.274 176.938 143.386 172.554 137.333C168.169 131.281 161.974 128.255 153.968 128.255C146.2 128.255 140.1 131.329 135.668 137.476C131.283 143.576 129.043 152.202 128.948 163.354V169.43C128.948 180.677 131.14 189.469 135.525 195.808C139.957 202.146 146.152 205.315 154.111 205.315C162.165 205.315 168.336 202.265 172.625 196.165C176.962 190.065 179.13 181.153 179.13 169.43V163.997Z" fill="white" fill-opacity="0.2"/>
<path d="M232.958 158.779H243.538C248.875 158.731 253.093 157.349 256.19 154.633C259.336 151.916 260.908 147.985 260.908 142.838C260.908 137.881 259.598 134.045 256.977 131.329C254.403 128.565 250.448 127.183 245.11 127.183C240.44 127.183 236.604 128.541 233.601 131.257C230.599 133.926 229.098 137.429 229.098 141.765H211.727C211.727 136.428 213.133 131.567 215.945 127.183C218.804 122.798 222.759 119.391 227.811 116.96C232.91 114.482 238.605 113.243 244.896 113.243C255.285 113.243 263.434 115.864 269.343 121.106C275.3 126.301 278.279 133.545 278.279 142.838C278.279 147.508 276.778 151.916 273.775 156.062C270.821 160.161 266.984 163.258 262.266 165.355C267.985 167.309 272.322 170.383 275.277 174.577C278.279 178.771 279.78 183.774 279.78 189.588C279.78 198.929 276.563 206.363 270.13 211.892C263.744 217.42 255.332 220.184 244.896 220.184C234.888 220.184 226.691 217.515 220.305 212.178C213.919 206.84 210.726 199.739 210.726 190.875H228.097C228.097 195.45 229.622 199.167 232.672 202.027C235.77 204.886 239.916 206.316 245.11 206.316C250.495 206.316 254.737 204.886 257.834 202.027C260.932 199.167 262.481 195.021 262.481 189.588C262.481 184.108 260.861 179.89 257.62 176.936C254.379 173.981 249.566 172.504 243.18 172.504H232.958V158.779Z" fill="white" fill-opacity="0.2"/>
<path d="M489.841 125.829H394.065C392.44 125.829 391.122 127.146 391.122 128.771C391.122 130.396 392.44 131.713 394.065 131.713H489.842C491.467 131.713 492.784 130.396 492.784 128.771C492.784 127.146 491.466 125.829 489.841 125.829Z" fill="url(#paint1_linear)"/>
<path d="M394.065 111.305H441.953C443.578 111.305 444.895 109.988 444.895 108.363C444.895 106.738 443.578 105.421 441.953 105.421H394.065C392.44 105.421 391.122 106.738 391.122 108.363C391.122 109.988 392.44 111.305 394.065 111.305V111.305Z" fill="url(#paint2_linear)"/>
<path d="M489.841 143.912H394.065C392.44 143.912 391.122 145.229 391.122 146.854C391.122 148.479 392.44 149.796 394.065 149.796H489.842C491.467 149.796 492.784 148.479 492.784 146.854C492.784 145.229 491.466 143.912 489.841 143.912Z" fill="url(#paint3_linear)"/>
<path d="M415.882 251.558H385.231C380.2 251.558 376.107 247.465 376.107 242.434V87.0082C376.107 81.9773 380.2 77.884 385.231 77.884H473.534C473.819 77.884 474.1 77.9102 474.378 77.9477V96.2969C474.378 104.573 481.111 111.305 489.386 111.305H507.735C507.773 111.583 507.798 111.864 507.798 112.149V162.251C507.798 163.876 509.116 165.193 510.741 165.193C512.366 165.193 513.683 163.876 513.683 162.251V112.15C513.683 108.922 512.426 105.888 510.144 103.605L482.077 75.5391C479.795 73.257 476.761 72 473.534 72H385.231C376.955 72 370.223 78.7328 370.223 87.0082V242.434C370.223 250.709 376.955 257.442 385.231 257.442H415.882C417.507 257.442 418.824 256.125 418.824 254.5C418.824 252.875 417.507 251.558 415.882 251.558V251.558ZM503.638 105.421H489.386C484.355 105.421 480.262 101.328 480.262 96.2969V82.0453L503.638 105.421Z" fill="url(#paint4_linear)"/>
<path d="M546.874 216.035L521.945 173.957C520.128 170.889 516.175 169.875 513.105 171.693L507.041 175.286C502.335 178.074 500.345 183.717 501.961 188.717C499.918 189.457 497.678 189.446 495.616 188.648C490.828 187.142 487.189 184.112 481.177 185.632C470.97 188.231 471.28 188.101 470.357 188.417C464.38 185.015 460.788 184.002 454.443 186.456L448.788 188.643C446.169 189.655 443.284 189.415 440.865 187.981L439.321 187.071C440.075 182.559 438.073 177.797 433.836 175.287C433.836 175.287 433.836 175.287 433.835 175.286L427.772 171.694C424.711 169.881 420.746 170.896 418.932 173.957L394.003 216.035C392.186 219.103 393.197 223.058 396.266 224.875L402.329 228.467C404.164 229.555 406.18 230.071 408.172 230.071C410.394 230.071 412.584 229.428 414.457 228.215L415.72 228.961L413.052 232.677C409.873 237.106 410.883 243.264 415.313 246.444C417.361 247.914 419.935 248.586 422.596 248.168C423.018 250.636 424.371 252.946 426.56 254.519C428.617 255.996 431.179 256.668 433.845 256.248C434.268 258.714 435.62 261.022 437.809 262.594C440.75 264.705 444.407 264.949 447.454 263.648C448.121 265.38 449.28 266.944 450.897 268.105C455.119 271.135 460.934 270.345 464.215 266.419L471.305 270.619C475.993 273.397 482.043 271.853 484.823 267.159C485.534 265.959 485.975 264.651 486.136 263.307L486.152 263.317C490.834 266.09 496.897 264.537 499.671 259.857C500.474 258.501 500.914 257.03 501.021 255.556C505.148 256.594 509.645 254.861 511.922 251.017C512.669 249.756 513.103 248.394 513.245 247.023C517.668 248.759 522.837 247.081 525.335 242.866C526.678 240.598 527.058 237.944 526.405 235.39C526.031 233.929 525.343 232.603 524.4 231.483L528.307 229.2C531.613 230.557 535.386 230.34 538.548 228.467L544.61 224.875C547.679 223.058 548.693 219.104 546.874 216.035V216.035ZM405.328 223.405L399.265 219.813C398.995 219.653 398.906 219.304 399.065 219.034L423.995 176.955C424.155 176.684 424.506 176.596 424.774 176.756L430.837 180.347C433.531 181.944 434.374 185.399 432.807 188.044L413.025 221.435C411.446 224.101 407.994 224.984 405.328 223.405V223.405ZM418.744 241.664C416.957 240.381 416.549 237.896 417.832 236.108L421.754 230.646C423.003 228.906 425.493 228.43 427.309 229.734C429.093 231.014 429.502 233.506 428.222 235.289L424.3 240.751C423.02 242.535 420.527 242.943 418.744 241.664V241.664ZM429.992 249.739C428.209 248.459 427.8 245.966 429.08 244.183L433.002 238.721C433.002 238.721 433.002 238.721 433.002 238.721C433.002 238.721 433.002 238.721 433.002 238.721L437.33 232.692C437.95 231.829 438.869 231.258 439.918 231.086C440.136 231.05 440.355 231.032 440.571 231.032C441.397 231.032 442.201 231.289 442.885 231.78C443.748 232.401 444.319 233.319 444.491 234.369C444.664 235.418 444.417 236.472 443.797 237.335L435.547 248.827C434.265 250.614 431.78 251.023 429.992 249.739V249.739ZM441.24 257.814C439.458 256.534 439.048 254.044 440.326 252.261C440.327 252.26 440.327 252.259 440.328 252.258L448.577 240.767C449.857 238.985 452.35 238.575 454.133 239.855C455.916 241.135 456.325 243.627 455.045 245.41L451.38 250.516C451.38 250.516 451.38 250.516 451.379 250.517L446.795 256.902C445.515 258.685 443.024 259.095 441.24 257.814V257.814ZM454.328 263.325C452.546 262.045 452.137 259.556 453.414 257.772L456.159 253.948C457.439 252.165 459.932 251.757 461.715 253.036C463.498 254.316 463.907 256.808 462.627 258.592L459.884 262.412C458.604 264.196 456.111 264.605 454.328 263.325V263.325ZM520.273 239.867C519.154 241.756 516.707 242.383 514.817 241.264C511.617 239.368 490.975 227.139 488.774 225.835C487.376 225.007 485.571 225.468 484.743 226.866C483.915 228.264 484.377 230.069 485.775 230.897L505.463 242.562L505.464 242.562C507.354 243.681 507.984 246.121 506.861 248.019C505.741 249.909 503.293 250.534 501.403 249.416C494.121 245.102 488.209 241.599 481.704 237.745C480.305 236.917 478.502 237.378 477.673 238.776C476.845 240.174 477.307 241.979 478.705 242.807L493.212 251.402L493.215 251.404C495.106 252.527 495.73 254.965 494.609 256.859C493.489 258.749 491.042 259.375 489.152 258.256L481.366 253.644C481.365 253.643 481.364 253.643 481.363 253.642C481.362 253.642 481.362 253.641 481.361 253.641L475.679 250.274C474.281 249.446 472.477 249.907 471.648 251.306C470.82 252.704 471.282 254.508 472.68 255.337L478.362 258.703C478.363 258.704 478.364 258.704 478.365 258.705C480.255 259.824 480.885 262.263 479.762 264.161C478.642 266.051 476.194 266.678 474.304 265.558L467.675 261.631C470.517 257.246 469.436 251.337 465.146 248.258C463.887 247.354 462.484 246.791 461.049 246.549C462.571 242.48 461.259 237.729 457.564 235.077C455.377 233.506 452.757 232.963 450.285 233.351C449.846 230.778 448.439 228.525 446.317 227.002C442.325 224.138 436.901 224.688 433.551 228.078C432.87 226.882 431.93 225.809 430.741 224.956C427.424 222.575 423.118 222.553 419.834 224.558L418.486 223.762L436.99 192.528L437.871 193.048C441.762 195.353 446.509 195.833 450.909 194.131L456.565 191.945C459.801 190.694 461.586 190.613 464.787 192.123C462.693 194.476 461.449 197.566 461.449 200.896V213.94C461.449 217.405 464.266 220.226 467.728 220.228H467.737C471.209 220.228 474.475 218.876 476.932 216.421C478.364 214.99 479.421 213.284 480.054 211.421C483.853 213.671 515.239 232.256 518.877 234.412C519.793 234.954 520.442 235.821 520.705 236.851C520.969 237.88 520.816 238.952 520.273 239.867V239.867ZM541.612 219.813L535.549 223.405C532.883 224.983 529.431 224.099 527.853 221.435L518.581 205.785C517.752 204.387 515.947 203.926 514.55 204.753C513.152 205.581 512.69 207.386 513.518 208.784L522.79 224.435C522.964 224.729 523.154 225.009 523.35 225.282L520.772 226.788C520.251 227.097 519.75 227.437 519.271 227.806L479.301 204.136C477.343 202.977 474.86 204.39 474.86 206.667C474.829 206.843 475.164 209.867 472.772 212.258C471.427 213.602 469.638 214.343 467.736 214.343C467.735 214.343 467.733 214.343 467.732 214.343C467.512 214.343 467.333 214.162 467.333 213.939V200.894C467.333 197.486 469.677 194.611 472.848 193.808L482.62 191.335C486.166 190.439 488.17 192.333 493.479 194.129C497.164 195.555 501.172 195.467 504.729 193.948L506.505 196.946C507.333 198.345 509.138 198.806 510.535 197.978C511.934 197.15 512.395 195.345 511.568 193.947L508.07 188.044C506.487 185.372 507.369 181.93 510.04 180.347L516.103 176.755C516.368 176.598 516.718 176.678 516.882 176.955L541.811 219.033C541.972 219.305 541.884 219.652 541.612 219.813V219.813Z" fill="url(#paint5_linear)"/>
<defs>
<filter id="filter0_b" x="-100" y="-100" width="919" height="540" filterUnits="userSpaceOnUse" color-interpolation-filters="sRGB">
<feFlood flood-opacity="0" result="BackgroundImageFix"/>
<feGaussianBlur in="BackgroundImage" stdDeviation="50"/>
<feComposite in2="SourceAlpha" operator="in" result="effect1_backgroundBlur"/>
<feBlend mode="normal" in="SourceGraphic" in2="effect1_backgroundBlur" result="shape"/>
</filter>
<linearGradient id="paint0_linear" x1="16" y1="41.5" x2="732.46" y2="435.299" gradientUnits="userSpaceOnUse">
<stop stop-color="#FF9999" stop-opacity="0.65"/>
<stop offset="1" stop-color="#561E1F" stop-opacity="0.2"/>
</linearGradient>
<linearGradient id="paint1_linear" x1="441.953" y1="125.829" x2="441.953" y2="131.713" gradientUnits="userSpaceOnUse">
<stop stop-color="#FF9999"/>
<stop offset="0.466667" stop-color="#FF8A8B"/>
<stop offset="1" stop-color="#561E1F"/>
</linearGradient>
<linearGradient id="paint2_linear" x1="418.009" y1="105.421" x2="418.009" y2="111.305" gradientUnits="userSpaceOnUse">
<stop stop-color="#FF9999"/>
<stop offset="0.466667" stop-color="#FF8A8B"/>
<stop offset="1" stop-color="#561E1F"/>
</linearGradient>
<linearGradient id="paint3_linear" x1="441.953" y1="143.912" x2="441.953" y2="149.796" gradientUnits="userSpaceOnUse">
<stop stop-color="#FF9999"/>
<stop offset="0.466667" stop-color="#FF8A8B"/>
<stop offset="1" stop-color="#561E1F"/>
</linearGradient>
<linearGradient id="paint4_linear" x1="441.953" y1="72" x2="442" y2="293.5" gradientUnits="userSpaceOnUse">
<stop stop-color="#FF9999"/>
<stop offset="0.466667" stop-color="#FF8A8B"/>
<stop offset="1" stop-color="#561E1F"/>
</linearGradient>
<linearGradient id="paint5_linear" x1="470.439" y1="170.79" x2="470" y2="292.5" gradientUnits="userSpaceOnUse">
<stop stop-color="#FF9999"/>
<stop offset="0.466667" stop-color="#FF8A8B"/>
<stop offset="1" stop-color="#561E1F"/>
</linearGradient>
</defs>
</svg>
