<svg width="719" height="340" viewBox="0 0 719 340" fill="none" xmlns="http://www.w3.org/2000/svg">
<g filter="url(#filter0_b)">
<rect width="719" height="340" rx="85" fill="url(#paint0_linear)" fill-opacity="0.5"/>
</g>
<path d="M213.287 169.43C213.287 179.295 211.714 187.849 208.569 195.093C205.471 202.289 201.111 208.008 195.487 212.249L213.358 226.188L201.635 236.768L179.475 219.254C176.568 219.874 173.446 220.184 170.11 220.184C161.723 220.184 154.217 218.135 147.593 214.036C141.016 209.89 135.917 204.004 132.295 196.379C128.721 188.754 126.91 179.962 126.862 170.002V164.14C126.862 153.989 128.649 145.03 132.224 137.262C135.846 129.494 140.921 123.561 147.45 119.462C154.026 115.316 161.532 113.243 169.967 113.243C178.546 113.243 186.099 115.292 192.628 119.391C199.204 123.442 204.28 129.303 207.854 136.976C211.428 144.601 213.239 153.489 213.287 163.64V169.43ZM195.13 163.997C195.13 152.274 192.938 143.386 188.553 137.333C184.169 131.281 177.974 128.255 169.967 128.255C162.199 128.255 156.099 131.329 151.667 137.476C147.283 143.576 145.043 152.202 144.948 163.354V169.43C144.948 180.677 147.14 189.469 151.524 195.808C155.956 202.146 162.152 205.315 170.11 205.315C178.164 205.315 184.336 202.265 188.625 196.165C192.962 190.065 195.13 181.153 195.13 169.43V163.997Z" fill="white" fill-opacity="0.2"/>
<path d="M287.631 181.654H300.569V195.593H287.631V218.754H270.26V195.593H225.296L224.796 185.013L269.688 114.673H287.631V181.654ZM243.024 181.654H270.26V138.191L268.973 140.479L243.024 181.654Z" fill="white" fill-opacity="0.2"/>
<g clip-path="url(#clip0)">
<path d="M459.884 70.0088C456.299 70.0088 452.717 70.2015 449.152 70.5857C445.885 70.9194 442.658 71.4667 439.475 72.1308C438.858 72.2597 438.242 72.3957 437.626 72.538C418.868 76.8087 401.74 86.3993 388.296 100.16C387.045 101.441 385.822 102.761 384.625 104.118C348.308 145.811 352.666 209.05 394.36 245.367C434.276 280.136 494.36 277.822 531.484 240.088C532.737 238.806 533.96 237.487 535.155 236.13C551.182 217.878 560.014 194.414 560 170.124C560 114.831 515.177 70.0084 459.884 70.0088ZM392.744 105.166C393.271 104.618 393.819 104.094 394.356 103.564C394.977 102.953 395.594 102.339 396.228 101.748C396.785 101.228 397.359 100.727 397.93 100.22C398.574 99.6492 399.215 99.0785 399.876 98.5279C400.456 98.0373 401.054 97.5668 401.648 97.0929C402.315 96.559 402.983 96.025 403.67 95.5111C404.277 95.0539 404.895 94.6101 405.515 94.1762C406.206 93.6823 406.9 93.1751 407.605 92.7145C408.235 92.2874 408.873 91.8736 409.513 91.4631C410.228 91.0059 410.945 90.5554 411.669 90.1282C412.321 89.739 412.977 89.3561 413.638 88.9802C414.377 88.5597 415.119 88.1493 415.864 87.7488C416.532 87.393 417.199 87.0447 417.866 86.7043C418.627 86.3205 419.395 85.9501 420.166 85.5863C420.833 85.2693 421.527 84.9523 422.215 84.6519C422.999 84.3182 423.793 83.9845 424.587 83.6508C425.278 83.3671 425.966 83.0901 426.663 82.8231C427.471 82.5161 428.288 82.2291 429.106 81.9421C429.803 81.6985 430.501 81.4549 431.208 81.2246C432.039 80.9577 432.877 80.7107 433.718 80.4671C434.422 80.2635 435.12 80.0533 435.827 79.8631C436.097 79.793 436.368 79.7362 436.638 79.6662C426.76 89.2576 419.429 101.161 415.31 114.299C407.389 112.21 399.721 109.259 392.444 105.499C392.554 105.382 392.647 105.266 392.744 105.166ZM387.945 110.538C395.962 114.882 404.462 118.265 413.271 120.617C408.953 135.632 406.686 151.163 406.533 166.787H366.521C367.248 146.184 374.782 126.404 387.945 110.538ZM387.945 229.709C374.783 213.843 367.248 194.063 366.521 173.461H406.533C406.686 189.084 408.952 204.615 413.271 219.631C404.463 221.983 395.962 225.366 387.945 229.709ZM435.807 260.398C435.133 260.228 434.435 260.007 433.741 259.804C432.897 259.557 432.049 259.31 431.215 259.039C430.511 258.813 429.817 258.569 429.123 258.325C428.302 258.042 427.481 257.751 426.67 257.441C425.976 257.177 425.292 256.9 424.604 256.62C423.807 256.286 423.009 255.953 422.218 255.619C421.537 255.319 420.86 255.009 420.186 254.691C419.408 254.324 418.634 253.95 417.85 253.563C417.182 253.229 416.515 252.896 415.847 252.532C415.093 252.128 414.346 251.714 413.598 251.287C412.931 250.917 412.297 250.536 411.653 250.149C410.918 249.709 410.198 249.255 409.477 248.791C408.843 248.387 408.209 247.977 407.585 247.556C406.874 247.076 406.17 246.575 405.472 246.075C404.861 245.637 404.251 245.2 403.65 244.74C402.959 244.219 402.282 243.682 401.608 243.141C401.017 242.671 400.43 242.203 399.852 241.72C399.185 241.166 398.541 240.588 397.893 240.014C397.326 239.51 396.755 239.013 396.201 238.499C395.564 237.905 394.947 237.288 394.326 236.677C393.789 236.146 393.241 235.623 392.714 235.079C392.617 234.975 392.524 234.868 392.427 234.768C399.704 231.006 407.372 228.054 415.293 225.965C419.414 239.102 426.744 251.006 436.621 260.598C436.351 260.528 436.077 260.471 435.807 260.398ZM456.548 263.301C442.268 261.272 429.75 246.368 421.874 224.36C433.261 221.81 444.88 220.442 456.548 220.278V263.301ZM456.548 213.604C444.171 213.766 431.846 215.237 419.779 217.989C415.588 203.511 413.378 188.532 413.208 173.461H456.548V213.604ZM456.548 166.787H413.208C413.377 151.715 415.588 136.737 419.779 122.259C431.846 125.01 444.171 126.481 456.548 126.644V166.787ZM456.548 119.969C444.88 119.807 433.261 118.439 421.874 115.888C429.75 93.8792 442.268 78.9754 456.548 76.9464V119.969ZM531.824 110.538C544.987 126.404 552.521 146.184 553.249 166.787H513.236C513.084 151.163 510.817 135.632 506.499 120.617C515.307 118.264 523.808 114.881 531.824 110.538ZM483.936 79.8464C484.637 80.0199 485.334 80.2402 486.028 80.4437C486.873 80.6907 487.72 80.9376 488.555 81.2079C489.259 81.4349 489.953 81.6785 490.647 81.9221C491.468 82.2058 492.289 82.4961 493.1 82.8065C493.794 83.0701 494.478 83.3471 495.165 83.6274C495.963 83.9611 496.761 84.2948 497.552 84.6286C498.232 84.9289 498.91 85.238 499.584 85.5563C500.361 85.9234 501.136 86.2971 501.92 86.6843C502.587 87.018 503.255 87.3517 503.922 87.7154C504.676 88.1192 505.424 88.533 506.171 88.9602C506.839 89.3306 507.473 89.7111 508.117 90.0982C508.851 90.5387 509.572 90.9925 510.293 91.4564C510.927 91.8602 511.561 92.2707 512.185 92.6912C512.896 93.1717 513.597 93.669 514.294 94.1695C514.908 94.6067 515.519 95.0472 516.123 95.5044C516.81 96.0217 517.485 96.559 518.162 97.0996C518.749 97.5668 519.34 98.034 519.917 98.5212C520.585 99.0752 521.229 99.6525 521.876 100.227C522.444 100.73 523.014 101.228 523.568 101.742C524.206 102.336 524.823 102.953 525.444 103.564C525.981 104.094 526.528 104.618 527.056 105.162C527.152 105.266 527.246 105.372 527.343 105.473C520.065 109.234 512.397 112.187 504.476 114.276C500.348 101.137 493.008 89.2343 483.122 79.6461C483.392 79.7162 483.666 79.773 483.936 79.8464ZM463.222 76.9464C477.502 78.9754 490.02 93.8792 497.895 115.888C486.509 118.437 474.889 119.805 463.222 119.969V76.9464ZM463.222 126.644C475.599 126.481 487.923 125.011 499.991 122.259C504.181 136.737 506.392 151.715 506.562 166.787H463.222V126.644ZM463.222 173.461H506.562C506.392 188.532 504.182 203.511 499.991 217.989C487.923 215.237 475.599 213.767 463.222 213.604V173.461ZM463.222 263.301V220.278C474.89 220.441 486.509 221.809 497.895 224.36C490.02 246.368 477.502 261.272 463.222 263.301ZM527.025 235.082C526.498 235.626 525.954 236.15 525.417 236.68C524.796 237.291 524.176 237.908 523.538 238.503C522.984 239.02 522.414 239.504 521.846 240.021C521.199 240.595 520.555 241.169 519.894 241.723C519.31 242.21 518.716 242.681 518.122 243.155C517.454 243.688 516.787 244.222 516.1 244.736C515.492 245.194 514.875 245.637 514.254 246.071C513.563 246.565 512.869 247.072 512.165 247.533C511.534 247.96 510.897 248.374 510.256 248.781C509.542 249.242 508.822 249.687 508.097 250.116C507.43 250.506 506.792 250.887 506.135 251.264C505.396 251.684 504.653 252.095 503.906 252.495C503.238 252.851 502.571 253.199 501.903 253.54C501.142 253.924 500.375 254.294 499.604 254.658C498.936 254.975 498.242 255.292 497.555 255.592C496.771 255.926 495.976 256.26 495.182 256.593C494.491 256.874 493.804 257.154 493.11 257.418C492.295 257.728 491.478 258.018 490.657 258.302C489.963 258.546 489.269 258.789 488.565 259.016C487.73 259.286 486.896 259.533 486.045 259.777C485.347 259.984 484.647 260.191 483.943 260.381C483.672 260.451 483.402 260.508 483.132 260.578C493.01 250.986 500.34 239.083 504.46 225.945C512.38 228.034 520.048 230.985 527.326 234.745C527.216 234.865 527.122 234.982 527.025 235.082ZM531.824 229.709C523.808 225.366 515.307 221.983 506.499 219.631C510.817 204.615 513.084 189.084 513.236 173.461H553.249C552.522 194.063 544.988 213.844 531.824 229.709Z" fill="url(#paint1_linear)"/>
</g>
<defs>
<filter id="filter0_b" x="-100" y="-100" width="919" height="540" filterUnits="userSpaceOnUse" color-interpolation-filters="sRGB">
<feFlood flood-opacity="0" result="BackgroundImageFix"/>
<feGaussianBlur in="BackgroundImage" stdDeviation="50"/>
<feComposite in2="SourceAlpha" operator="in" result="effect1_backgroundBlur"/>
<feBlend mode="normal" in="SourceGraphic" in2="effect1_backgroundBlur" result="shape"/>
</filter>
<linearGradient id="paint0_linear" x1="16" y1="41.5" x2="732.46" y2="435.299" gradientUnits="userSpaceOnUse">
<stop stop-color="#FF9999" stop-opacity="0.65"/>
<stop offset="1" stop-color="#561E1F" stop-opacity="0.25"/>
</linearGradient>
<linearGradient id="paint1_linear" x1="460" y1="70.0088" x2="460" y2="269.991" gradientUnits="userSpaceOnUse">
<stop stop-color="#FF9999"/>
<stop offset="0.497917" stop-color="#FF8A8B"/>
<stop offset="1" stop-color="#561E1F"/>
</linearGradient>
<clipPath id="clip0">
<rect width="200" height="200" fill="white" transform="translate(360 70)"/>
</clipPath>
</defs>
</svg>
