<svg width="53" height="30" viewBox="0 0 53 30" fill="none" xmlns="http://www.w3.org/2000/svg">
<path fill-rule="evenodd" clip-rule="evenodd" d="M10.7961 8.64055C7.63521 6.39201 5.5693 4.36814 5.74663 3.39862C5.97814 2.13297 11.3055 2.76905 12.7187 2.99762C9.5662 1.79761 0.69174 -0.544285 0.0394994 1.51287C-0.775802 4.08432 11.2365 13.8091 16.9982 17.113C24.1731 21.2273 35.0582 25.7977 43.211 26.6549C48.4289 27.2035 51.364 26.6549 52.2188 24.9988C53.3748 22.7592 44.8811 16.5987 39.5001 13.6844C39.4372 13.6503 39.377 13.6179 39.3195 13.5871C38.6075 5.96544 32.193 0 24.3852 0C18.3743 0 13.1892 3.53557 10.7961 8.64055ZM38.2937 20.6278C42.7872 21.7311 46.1419 22.1286 46.8378 21.5702C48.0483 20.5989 42.8937 16.6962 40.0599 14.5506C39.8032 14.3562 39.5655 14.1762 39.3533 14.0142C39.3745 14.3401 39.3852 14.6688 39.3852 15C39.3852 16.9902 38.9976 18.89 38.2937 20.6278ZM24.3852 30C27.2824 30 29.9878 29.1786 32.2811 27.756C26.5974 25.7883 20.9629 23.2074 16.5692 20.7628C14.6294 19.6835 12.0502 17.9643 9.41875 16.0114C9.93889 23.824 16.4408 30 24.3852 30Z" fill="#F4F4F4"/>
</svg>
