<svg id="Layer_1" data-name="Layer 1" xmlns="http://www.w3.org/2000/svg" viewBox="0 0 623.29 188.43" style="max-width: 450px;"><defs><style>.cls-1{fill:#fff;}.cls-2{fill:#bababa;}.cls-3{fill:#6b6b6b;}.cls-4{fill:#eaeaea;}.cls-5{fill:#7cb5f9;}</style></defs><circle class="cls-1" cx="98.43" cy="96.38" r="40.39"></circle><path class="cls-2" d="M98.43,161.4a65,65,0,1,1,65-65A65,65,0,0,1,98.43,161.4Zm41.24-65a41.24,41.24,0,1,0-41.24,41.24A41.23,41.23,0,0,0,139.67,96.38Z"></path><path d="M98.43,163.33a67,67,0,1,1,66.95-67A67,67,0,0,1,98.43,163.33Zm0-130a63.08,63.08,0,1,0,63.08,63.08A63.15,63.15,0,0,0,98.43,33.3Z"></path><path class="cls-3" d="M98.43,147.65A51.27,51.27,0,1,1,149.7,96.38,51.33,51.33,0,0,1,98.43,147.65Zm0-94.24a43,43,0,1,0,43,43A43,43,0,0,0,98.43,53.41Z"></path><path class="cls-4" d="M137.32,143.55a62.73,62.73,0,0,0,14.85-19,61.5,61.5,0,0,0,4.39-11.24,59.8,59.8,0,0,0,2-11.87,61.29,61.29,0,0,0-2.93-23.72,61,61,0,0,0-41.89-39.57,62.51,62.51,0,0,0-11.85-2A61.87,61.87,0,0,0,57.2,51.25c.75-.68,1.49-1.38,2.25-2s1.55-1.34,2.36-2a60,60,0,0,1,5-3.5,61,61,0,0,1,59-3.09,61.71,61.71,0,0,1,31.6,36.45,60.89,60.89,0,0,1,2.65,24.42,62.75,62.75,0,0,1-2.33,12.08,60.44,60.44,0,0,1-20.42,29.94Z"></path><path d="M98.43,138.45A42.07,42.07,0,1,1,140.5,96.38,42.11,42.11,0,0,1,98.43,138.45Zm0-82.47a40.41,40.41,0,1,0,40.41,40.4A40.44,40.44,0,0,0,98.43,56Z"></path><path d="M98.43,149.44a53.92,53.92,0,0,0,16.86-2.93A53.34,53.34,0,0,0,142,126a52.28,52.28,0,0,0,7.09-15.44,54.21,54.21,0,0,0,1.6-8.37,57.55,57.55,0,0,0,.24-8.51,52.63,52.63,0,0,0-25.2-42.16,53.9,53.9,0,0,0-7.59-3.82c-.67-.25-1.32-.54-2-.77l-2-.68c-1.37-.4-2.73-.8-4.12-1.1a51.91,51.91,0,0,0-8.42-1.2,56.23,56.23,0,0,0-8.51.16,52.45,52.45,0,0,0-16.39,4.42,53.62,53.62,0,0,0-7.46,4.11,54.86,54.86,0,0,0-6.69,5.28A52.15,52.15,0,0,0,48.59,79.15a50,50,0,0,0-2.18,8.26,53.77,53.77,0,0,0-.29,17.08,53.12,53.12,0,0,0,5.19,16.31,53.13,53.13,0,0,1-5.45-16.27,53.94,53.94,0,0,1,0-17.2c.13-.71.22-1.43.39-2.13l.47-2.11c.38-1.39.76-2.79,1.24-4.15A54.71,54.71,0,0,1,51.43,71a54.09,54.09,0,0,1,10.5-13.7,55.25,55.25,0,0,1,6.77-5.42,52.87,52.87,0,0,1,7.56-4.25A53.55,53.55,0,0,1,93,43.08a58.53,58.53,0,0,1,8.68-.19,54.11,54.11,0,0,1,8.6,1.2c1.42.3,2.81.71,4.21,1.11l2.06.69c.68.23,1.35.52,2,.78a56.3,56.3,0,0,1,7.77,3.88,54.36,54.36,0,0,1,7,5.11,50.24,50.24,0,0,1,6.12,6.17A53.54,53.54,0,0,1,152,93.64a58.4,58.4,0,0,1-.28,8.67,51.36,51.36,0,0,1-1.68,8.52,53.44,53.44,0,0,1-7.36,15.63,54.3,54.3,0,0,1-11.95,12.44A52.92,52.92,0,0,1,98.43,149.44Z"></path><path d="M79.67,98l6.22-6.22v-3.2a8.73,8.73,0,0,0-17.45,0V104.7a8.73,8.73,0,0,0,17.45,0V98Z"></path><path d="M120.42,98l6.22-6.22v-3.2a8.73,8.73,0,0,0-17.45,0V104.7a8.73,8.73,0,0,0,17.45,0V98Z"></path><path class="cls-1" d="M225.05,69.09a25.69,25.69,0,0,0-25.67,25.67v.16h0c0,28.15,8.68,37.42,16.28,43.3a1,1,0,0,0,1.48-1.37c-3.61-4-9.32-12.85-5.52-20.24a25.43,25.43,0,0,0,13.43,3.84,25.68,25.68,0,1,0,0-51.35Zm0,42.79a17.12,17.12,0,1,1,17.12-17.12A17.13,17.13,0,0,1,225.05,111.88Z"></path><path class="cls-1" d="M314.8,118.72c-7-5.06-8.49-13.11-7.32-19.92l0,.06a25.2,25.2,0,0,0,.36-4.1,25.77,25.77,0,1,0-6.59,17.12c4.2,5.08,13,7.9,13,7.9C315.12,120.27,315.73,119.21,314.8,118.72Zm-32.67-6.84a17.12,17.12,0,1,1,17.11-17.12A17.14,17.14,0,0,1,282.13,111.88Z"></path><path class="cls-1" d="M357.94,100.6c-.13-.46-.26-.91-.43-1.39A12.14,12.14,0,0,0,356,96.26a10,10,0,0,0-2.65-2.55,12,12,0,0,0-3-1.41,25.47,25.47,0,0,0-5-1c-3.06-.35-5.84-.52-8.63-.8s-5.84-.48-8.38-.82a15.57,15.57,0,0,1-3.23-.73,3.12,3.12,0,0,1-1.52-1,3.82,3.82,0,0,1-.47-.87,6.17,6.17,0,0,1-.21-.61l-.09-.33a.25.25,0,0,0,0-.12,3.16,3.16,0,0,1,.37-1.56,11.65,11.65,0,0,1,4.31-4.31,18.71,18.71,0,0,1,6.43-2.55,20.1,20.1,0,0,1,7,0A22.62,22.62,0,0,1,354,84.78l0,0a1.41,1.41,0,0,0,2.38-1.42c-2.13-5.93-7.47-10.63-13.71-12.72a22.63,22.63,0,0,0-10-1.05,25.54,25.54,0,0,0-9.61,3.21,19.85,19.85,0,0,0-7.68,7.68,11.1,11.1,0,0,0-1.23,6.72l.19.94.19.71a12.59,12.59,0,0,0,.5,1.41,12.27,12.27,0,0,0,1.61,2.86A11.83,11.83,0,0,0,322.07,97a23,23,0,0,0,5.12,1.18c3.13.4,5.93.53,8.71.8s5.83.47,8.46.77a17.68,17.68,0,0,1,3.37.63c.88.31,1.09.49,1.34.81a4,4,0,0,1,.42.86c.07.2.14.43.2.66a3.63,3.63,0,0,1,.13.59,3.17,3.17,0,0,1-.35,1.71,11.56,11.56,0,0,1-4.24,4.42,18,18,0,0,1-6.44,2.64,20.6,20.6,0,0,1-7.1.08,21.92,21.92,0,0,1-13.17-7.27l0,0a1.3,1.3,0,0,0-2.21,1.29c2.17,5.87,7.51,10.55,13.75,12.54a22.53,22.53,0,0,0,9.92,1,25.63,25.63,0,0,0,9.57-3.24,19.52,19.52,0,0,0,7.55-7.73,11.13,11.13,0,0,0,1.17-6.61C358.15,101.43,358,101.05,357.94,100.6Z"></path><path class="cls-1" d="M407.86,100.6c-.13-.46-.26-.91-.43-1.39a12.14,12.14,0,0,0-1.51-2.95,10,10,0,0,0-2.65-2.55,12,12,0,0,0-3-1.41,25.47,25.47,0,0,0-5-1c-3.06-.35-5.84-.52-8.64-.8s-5.83-.48-8.37-.82A15.57,15.57,0,0,1,375,89a3.12,3.12,0,0,1-1.52-1,3.82,3.82,0,0,1-.47-.87,6.17,6.17,0,0,1-.21-.61l-.09-.33a.25.25,0,0,0,0-.12,3.16,3.16,0,0,1,.37-1.56,11.65,11.65,0,0,1,4.31-4.31,18.71,18.71,0,0,1,6.43-2.55,20.1,20.1,0,0,1,7,0A22.65,22.65,0,0,1,404,84.78l0,0a1.41,1.41,0,0,0,2.38-1.42c-2.13-5.93-7.47-10.63-13.72-12.72a22.57,22.57,0,0,0-10-1.05A25.54,25.54,0,0,0,373,72.84a19.79,19.79,0,0,0-7.68,7.68,11.1,11.1,0,0,0-1.23,6.72l.19.94.19.71a12.59,12.59,0,0,0,.5,1.41,12.27,12.27,0,0,0,1.61,2.86A11.83,11.83,0,0,0,372,97a23,23,0,0,0,5.12,1.18c3.13.4,5.93.53,8.71.8s5.83.47,8.46.77a17.68,17.68,0,0,1,3.37.63c.88.31,1.09.49,1.33.81a3.56,3.56,0,0,1,.43.86c.07.2.14.43.2.66a5.32,5.32,0,0,1,.13.59,3.17,3.17,0,0,1-.35,1.71,11.56,11.56,0,0,1-4.24,4.42,18,18,0,0,1-6.44,2.64,20.6,20.6,0,0,1-7.1.08,21.92,21.92,0,0,1-13.17-7.27l0,0a1.3,1.3,0,0,0-2.21,1.29c2.17,5.87,7.51,10.55,13.75,12.54a22.51,22.51,0,0,0,9.92,1,25.63,25.63,0,0,0,9.57-3.24,19.52,19.52,0,0,0,7.55-7.73,11.2,11.2,0,0,0,1.17-6.61C408.07,101.43,408,101.05,407.86,100.6Z"></path><path class="cls-1" d="M497,69.09A25.68,25.68,0,1,0,510.4,116.6c3.8,7.39-1.91,16.25-5.52,20.24a1,1,0,0,0,1.48,1.37c7.59-5.88,16.27-15.15,16.27-43.3h0c0-.06,0-.11,0-.16A25.7,25.7,0,0,0,497,69.09Zm0,42.79a17.12,17.12,0,1,1,17.12-17.12A17.14,17.14,0,0,1,497,111.88Z"></path><path class="cls-1" d="M471.69,118.72c-7-5.06-8.49-13.11-7.31-19.92l-.05.06a25.2,25.2,0,0,0,.36-4.1,25.77,25.77,0,1,0-6.59,17.12c4.2,5.08,13,7.9,13,7.9C472,120.27,472.62,119.21,471.69,118.72ZM439,111.88a17.12,17.12,0,1,1,17.12-17.12A17.14,17.14,0,0,1,439,111.88Z"></path><path class="cls-1" d="M576,99.31a1.4,1.4,0,0,0-1.86.67l0,0a22.93,22.93,0,0,1-4.56,6.59,20.19,20.19,0,0,1-6.35,4.22A18.68,18.68,0,0,1,549,111a19.38,19.38,0,0,1-5.88-3.85,18.63,18.63,0,0,1-3.92-5.76,17,17,0,0,1,10.22-22.84,18.49,18.49,0,0,1,6.92-.93,20.17,20.17,0,0,1,6.86,1.88,16.53,16.53,0,0,1,3,1.9,15.29,15.29,0,0,1,1.27,1.11,9.56,9.56,0,0,1,1,1.2,5.18,5.18,0,0,1,.95,2.22,1.85,1.85,0,0,0,0,.47l-.16.78a6.05,6.05,0,0,1-.5,1.33,4.18,4.18,0,0,1-1.89,1.91,15.55,15.55,0,0,1-3.56,1.25c-2.69.69-5.66,1.13-8.55,1.84A1.29,1.29,0,0,0,555,96c1.47.07,2.93.12,4.41.15s3,.09,4.54,0a18.38,18.38,0,0,0,5-.83,10.06,10.06,0,0,0,4.87-3.5,12.21,12.21,0,0,0,1.44-2.6c.16-.44.32-.87.47-1.32s.24-1.14.32-1.71a11,11,0,0,0-1.43-6.12,16.61,16.61,0,0,0-3.4-4.37A23.77,23.77,0,0,0,567,72.61a25.38,25.38,0,0,0-9.83-3.29,24.8,24.8,0,0,0-10.41,1.13,25.7,25.7,0,0,0-15.51,34.3,24.91,24.91,0,0,0,15,13.91,24.22,24.22,0,0,0,19.91-2.15,23.11,23.11,0,0,0,7.2-6.81,21.44,21.44,0,0,0,3.44-8.94A1.38,1.38,0,0,0,576,99.31Z"></path><path class="cls-5" d="M536.9,130.1c3.16,0,6.43.67,6.43,4.57a4.45,4.45,0,0,1-1.26,2.85,4.45,4.45,0,0,1,1.55,3.16c0,4.59-4,5.41-6.87,5.41l-8.61,0V130.15Zm.72,6.25a1.6,1.6,0,0,0,1.79-1.48c0-.7-.55-1.37-1.75-1.37l-6.07.1v2.75Zm-6,6.44,5.36.07c1.34,0,2.84-.31,2.84-1.87,0-1.27-1.58-1.39-2.87-1.39h-5.33Z"></path><path class="cls-5" d="M562,146.06H546.9V130.15h14.69v3.4H550.35v2.56h9.23v3.49h-9.23v3.09H562Z"></path><path class="cls-5" d="M579.88,133.55h-6.7v12.51h-3.45V133.55H563v-3.4h16.85Z"></path><path class="cls-5" d="M592.42,142.24h-8.33c-.55,1.19-1.15,2.48-1.79,3.82h-3.93l7.76-15.91h4.28l7.75,15.91h-3.92Zm-6.73-3.35h5.15l-2.27-4.81H588C587.82,134.34,587,136.13,585.69,138.89Z"></path></svg>
