<svg width="107" height="128" viewBox="0 0 107 128" fill="none" xmlns="http://www.w3.org/2000/svg">
    <path d="M86.8651 79.0371C79.7023 72.0178 71.9778 66.3967 65.1176 63.207C57.7606 59.7875 52.0844 59.5592 49.1358 62.568L40.632 71.2452C37.6862 74.254 38.0276 79.9143 41.5951 87.2109C44.9238 94.0065 50.7 101.612 57.8628 108.632C68.2478 118.803 81.3094 127.245 89.7247 127.267C92.1076 127.273 94.122 126.601 95.592 125.101L104.096 116.424C107.042 113.415 106.7 107.755 103.133 100.458C99.804 93.6623 94.0279 86.0565 86.8651 79.0371ZM63.7801 66.0781C70.3225 69.1196 77.7323 74.523 84.6442 81.2959C91.556 88.0688 97.0986 95.3703 100.284 101.853C103.129 107.67 103.707 112.273 101.828 114.203C99.9496 116.133 95.3239 115.632 89.4516 112.905C82.9091 109.866 75.4993 104.46 68.5875 97.687C61.6757 90.9141 56.1214 83.6154 52.951 77.1353C50.1027 71.3212 49.5244 66.7159 51.4032 64.7889C52.1657 64.01 53.3842 63.6371 54.9573 63.6411C57.2506 63.6353 60.2966 64.4643 63.7801 66.0781ZM74.3808 117.927L80.6203 111.561C82.8627 113.042 85.2001 114.374 87.6172 115.549L81.4735 121.82C79.017 120.698 76.6464 119.397 74.3808 117.927V117.927ZM65.5108 111.317L71.7879 104.91C73.8396 106.651 75.9061 108.275 77.9585 109.741L71.7046 116.128C69.6926 114.709 67.6173 113.104 65.5108 111.317V111.317ZM50.0892 94.9623L56.3403 88.5611C57.8505 90.5892 59.5111 92.6177 61.2961 94.6465L55.0219 101.048C53.2311 99.0189 51.5793 96.9702 50.0892 94.9623ZM42.8993 73.4806L47.1875 69.1045C47.327 71.1147 47.9112 73.4094 48.9343 75.9453L42.8775 82.1244C41.462 78.0722 41.441 74.9547 42.8994 73.4662L42.8993 73.4806ZM44.1968 85.3117L50.3464 79.0403C51.5687 81.4328 52.9472 83.7423 54.4729 85.9536L48.2336 92.3087C46.8282 90.2305 45.5624 88.0613 44.4442 85.8155C44.3608 85.6418 44.2774 85.471 44.2026 85.2973L44.1968 85.3117ZM57.1646 103.404L63.4475 96.9915C64.3935 97.9945 65.3665 98.9869 66.3665 99.9688C67.3676 100.949 68.386 101.903 69.4016 102.828L63.1187 109.223C62.1108 108.313 61.0991 107.361 60.0837 106.367C59.0682 105.374 58.0971 104.381 57.1704 103.39L57.1646 103.404ZM93.3246 122.894C91.8546 124.394 88.7717 124.439 84.6831 123.089L90.7399 116.907C93.2824 117.865 95.5945 118.403 97.6186 118.507L93.3246 122.894Z" fill="url(#paint0_linear)"/>
    <path d="M71.5167 34.0323C76.5864 38.5449 81.9968 42.0953 86.7519 44.0333C89.5455 45.174 91.7162 45.6075 93.3993 45.6118C95.7909 45.6178 97.2158 44.7538 98.0627 43.8132L103.483 37.7222C107.949 32.7016 100.226 20.9699 90.6866 12.4842C81.1474 3.99841 68.6068 -2.32023 64.1349 2.70323L58.7261 8.8059C57.276 10.4275 56.3048 13.6957 59.8167 20.087C62.2867 24.5583 66.45 29.5197 71.5167 34.0323ZM62.5911 18.5179L65.7813 14.9256C66.5216 16.1611 67.3246 17.3581 68.1869 18.5118L64.9243 22.1792C64.0746 21.0101 63.2955 19.7914 62.5911 18.5295L62.5911 18.5179ZM69.7046 27.8767C68.7067 26.8331 67.7724 25.781 66.9046 24.7319L70.1933 21.0386C71.0582 22.0848 72.0157 23.1283 73.0108 24.1632L69.7046 27.8767ZM71.9546 30.1207L75.2666 26.4014C75.8128 26.9195 76.3706 27.4328 76.94 27.9412C77.5093 28.4497 78.0865 28.9447 78.6713 29.4263L75.3536 33.1397C74.7765 32.6582 74.1994 32.1651 73.6223 31.6547C73.0452 31.1443 72.4999 30.6397 71.9546 30.1207ZM77.8443 35.1212L81.1504 31.4193C82.305 32.2897 83.4394 33.1023 84.5798 33.8542L81.2911 37.5504C80.1517 36.8033 79.0027 35.9936 77.8443 35.1212V35.1212ZM84.0573 39.2029L87.32 35.5384C88.5694 36.2638 89.8554 36.9243 91.1727 37.5175L87.9826 41.1099C86.6367 40.5545 85.3258 39.9177 84.0573 39.2029V39.2029ZM91.2796 42.1622L94.3392 38.7257C95.4352 39.0819 96.5642 39.327 97.7093 39.4572L95.7111 41.702C95.0035 42.4897 93.4039 42.6302 91.2709 42.1622L91.2796 42.1622ZM88.5984 14.8531C99.3176 24.3945 103.124 33.3748 101.131 35.6138C100.105 36.768 97.1354 36.5378 93.3827 35.0159C88.954 33.2088 83.867 29.8587 79.0599 25.581C74.2528 21.3034 70.3259 16.6433 68.0172 12.4384C66.0626 8.89095 65.4887 5.9687 66.5182 4.81166C66.9504 4.32402 67.7318 4.0744 68.7989 4.0771C72.6451 4.08682 80.2019 7.3882 88.5897 14.8531L88.5984 14.8531ZM61.1066 10.9027L63.1019 8.6579C63.3651 9.77992 63.7402 10.8727 64.2215 11.9199L61.1532 15.3564C60.4412 13.2926 60.3961 11.702 61.0979 10.9027L61.1066 10.9027Z" fill="url(#paint1_linear)"/>
    <path d="M47.3925 22.6593L38.7309 17.1052C35.5925 15.0932 30.9768 16.3222 25.3845 20.6661C20.308 24.6152 14.9772 30.7296 10.3784 37.8927C5.77954 45.0559 2.43806 52.4564 0.97051 58.7194C-0.646121 65.6125 0.157488 70.3225 3.29588 72.3345L11.9575 77.8886C12.9558 78.5236 14.1179 78.8532 15.301 78.8369C18.0627 78.8439 21.4559 77.3284 25.3096 74.3364C30.3891 70.3931 35.7227 64.2729 40.3216 57.104C48.9009 43.716 54.3045 27.0927 47.3925 22.6593ZM40.8692 31.5093L46.7244 35.2633C46.2408 37.3261 45.6173 39.3535 44.8583 41.3316L38.902 37.5021C39.6761 35.5453 40.333 33.5442 40.8692 31.5093V31.5093ZM37.6655 40.4661L43.6449 44.3042C42.8654 46.075 41.9642 47.9235 40.9357 49.8209L34.9447 45.9769C35.921 44.1546 36.8424 42.2974 37.6655 40.4718L37.6655 40.4661ZM47.3027 31.8553L41.5716 28.1883C41.8822 26.4229 41.9577 24.6242 41.7963 22.8389L45.6795 25.33C47.0683 26.2213 47.6234 28.5449 47.2969 31.861L47.3027 31.8553ZM4.07166 59.4502C5.46027 53.5283 8.65047 46.483 13.0606 39.6115C17.4707 32.74 22.5434 26.9112 27.3476 23.1639C30.5581 20.6705 33.4129 19.3359 35.4025 19.3409C35.9764 19.3235 36.5432 19.4715 37.0353 19.7673C40.8031 22.1857 38.4424 35.1238 28.9951 49.8225C24.585 56.697 19.5123 62.5229 14.7081 66.2702C10.4545 69.5706 6.83351 70.8512 5.01172 69.6696C3.18992 68.488 2.83228 64.6785 4.07166 59.4502ZM30.0834 65.453L24.104 61.6409C25.412 60.152 26.7145 58.5532 27.9709 56.8675L33.9532 60.7056C32.6939 62.3855 31.3741 63.9727 30.0603 65.453L30.0834 65.453ZM13.6907 75.2237L9.79296 72.724C11.477 72.1262 13.0748 71.3086 14.5447 70.2924L20.244 73.9476C17.3769 75.6119 15.0187 76.0947 13.6675 75.2237L13.6907 75.2237ZM23.3784 71.83L23.1321 72.0203L17.2768 68.2749C18.9078 66.9443 20.4566 65.5161 21.9146 63.998L27.845 67.8042C26.4367 69.2415 24.937 70.5862 23.3553 71.83L23.3784 71.83ZM35.8481 58.1222L29.8225 54.281C30.4397 53.3899 31.0474 52.4796 31.6455 51.5499C32.2436 50.6202 32.8176 49.6866 33.3674 48.7491L39.37 52.5931C38.8239 53.5172 38.25 54.4498 37.648 55.391C37.046 56.3323 36.4355 57.2426 35.8163 58.1221L35.8481 58.1222Z" fill="url(#paint2_linear)"/>
    <path d="M23.6472 40.4279L13.6388 57.1277M23.6472 40.4279L28.1928 32.8432M23.6472 40.4279L33.1576 34.1972M23.6472 40.4279L32.3757 39.878M23.6472 40.4279L26.0316 45.6584M23.6472 40.4279L14.831 46.0404M23.6472 40.4279L15.0481 40.9697M23.6472 40.4279L21.0912 35.1516M12.2256 53.8912L19.1859 53.4527" stroke="url(#paint3_linear)" stroke-width="2" stroke-linecap="round" stroke-linejoin="round"/>
    <path d="M73.6158 85.9069L88.6215 104.322M73.6158 85.9069L66.8006 77.5432M73.6158 85.9069L76.6502 80.8999M73.6158 85.9069L85.6743 88.0103M73.6158 85.9069L86.5642 93.4552M73.6158 85.9069L70.5097 90.3366M73.6158 85.9069L61.7361 83.8346M73.6158 85.9069L60.3287 78.2438M80.7022 99.6712L90.318 101.349" stroke="url(#paint4_linear)" stroke-width="3" stroke-linecap="round" stroke-linejoin="round"/>
    <path d="M80.3995 16.8105L92.9555 29.43M80.3995 16.8105L74.6969 11.0789M80.3995 16.8105L79.7213 12.3486M80.3995 16.8105L85.8114 16.7533M80.3995 16.8105L88.16 20.9985M80.3995 16.8105L80.8375 20.819M80.3995 16.8105L75.0679 16.8668M80.3995 16.8105L72.4664 12.5793M88.1965 26.8412L92.5122 26.7956" stroke="url(#paint5_linear)" stroke-width="2" stroke-linecap="round" stroke-linejoin="round"/>
    <defs>
        <linearGradient id="paint0_linear" x1="72.4481" y1="60.5101" x2="72.2795" y2="127.222" gradientUnits="userSpaceOnUse">
            <stop stop-color="#FEB4B4"/>
            <stop offset="0.510417" stop-color="#DB7374"/>
            <stop offset="1" stop-color="#5E2324"/>
        </linearGradient>
        <linearGradient id="paint1_linear" x1="81.1531" y1="0.94982" x2="81.0403" y2="45.5805" gradientUnits="userSpaceOnUse">
            <stop stop-color="#FEB4B4"/>
            <stop offset="0.510417" stop-color="#DB7374"/>
            <stop offset="1" stop-color="#5E2324"/>
        </linearGradient>
        <linearGradient id="paint2_linear" x1="25.4301" y1="16.1395" x2="25.2716" y2="78.8629" gradientUnits="userSpaceOnUse">
            <stop stop-color="#FEB4B4"/>
            <stop offset="0.510417" stop-color="#DB7374"/>
            <stop offset="1" stop-color="#5E2324"/>
        </linearGradient>
        <linearGradient id="paint3_linear" x1="28.2575" y1="32.8391" x2="29.724" y2="56.1142" gradientUnits="userSpaceOnUse">
            <stop offset="0.0208333" stop-color="#FBAEAE"/>
            <stop offset="0.510417" stop-color="#A25C5D"/>
            <stop offset="1" stop-color="#CA6869"/>
        </linearGradient>
        <linearGradient id="paint4_linear" x1="66.89" y1="77.5588" x2="63.0011" y2="99.8528" gradientUnits="userSpaceOnUse">
            <stop offset="0.0208333" stop-color="#FBAEAE"/>
            <stop offset="0.541667" stop-color="#E27F80"/>
            <stop offset="1" stop-color="#8D4142"/>
        </linearGradient>
        <linearGradient id="paint5_linear" x1="74.737" y1="11.0785" x2="74.9329" y2="29.6204" gradientUnits="userSpaceOnUse">
            <stop offset="0.0208333" stop-color="#FBAEAE"/>
            <stop offset="0.484375" stop-color="#9F5152"/>
            <stop offset="0.979167" stop-color="#8D4142"/>
        </linearGradient>
    </defs>
</svg>
