<svg width="131" height="134" viewBox="0 0 131 134" fill="none" xmlns="http://www.w3.org/2000/svg">
<g filter="url(#filter0_d)">
<path d="M4.47207 88.5785C4.54316 89.4723 5.19113 90.2137 6.06863 90.4026L13.1475 91.9301C13.3974 93.1367 13.7143 94.327 14.0982 95.4889L8.73973 100.344C8.07551 100.945 7.88457 101.912 8.27051 102.722C9.24957 104.782 10.3404 106.685 11.5124 108.379C12.0202 109.114 12.9505 109.431 13.8057 109.157L20.6855 106.941C21.5082 107.863 22.3836 108.739 23.3058 109.561L21.0897 116.441C20.8155 117.292 21.1304 118.225 21.8677 118.734C23.5618 119.907 25.465 120.997 27.5247 121.976C28.3372 122.362 29.3021 122.169 29.9033 121.507L34.758 116.149C35.9219 116.531 37.1122 116.849 38.3188 117.099L39.8463 124.178C40.0352 125.054 40.7766 125.702 41.6683 125.775C42.7489 125.86 43.8316 125.937 44.9346 125.937C46.0375 125.937 47.1202 125.86 48.2008 125.775C49.0946 125.704 49.836 125.056 50.0249 124.178L51.5524 117.099C52.7589 116.849 53.9513 116.533 55.1132 116.149L59.9678 121.507C60.5711 122.171 61.538 122.364 62.3464 121.976C64.4061 120.997 66.3094 119.904 68.0035 118.734C68.7408 118.225 69.0557 117.292 68.7814 116.441L66.5653 109.561C67.4875 108.739 68.363 107.863 69.1857 106.943L76.0655 109.159C76.9166 109.435 77.8489 109.119 78.3588 108.381C79.5308 106.687 80.6216 104.784 81.6007 102.724C81.9866 101.914 81.7957 100.947 81.1314 100.346L75.773 95.4909C76.1549 94.327 76.4738 93.1367 76.7236 91.9301L83.8025 90.4026C84.678 90.2137 85.326 89.4723 85.3991 88.5806C85.4824 87.4979 85.5596 86.4153 85.5596 85.3123C85.5596 84.2093 85.4824 83.1267 85.3971 82.046C85.326 81.1523 84.678 80.4109 83.8005 80.222L76.7216 78.6945C76.4718 77.4879 76.1549 76.2956 75.771 75.1337L81.1294 70.279C81.7936 69.6778 81.9846 68.7109 81.5986 67.9004C80.6196 65.8407 79.5268 63.9374 78.3568 62.2434C77.8469 61.506 76.9146 61.1892 76.0635 61.4654L69.1836 63.6815C68.361 62.7593 67.4855 61.8839 66.5633 61.0612L68.7794 54.1814C69.0536 53.3303 68.7388 52.3979 68.0014 51.8881C66.3074 50.716 64.4041 49.6253 62.3444 48.6462C61.5319 48.2582 60.5671 48.4512 59.9658 49.1154L55.1111 54.4739C53.9472 54.092 52.7569 53.7731 51.5504 53.5232L50.0229 46.4443C49.8339 45.5689 49.0925 44.9209 48.2008 44.8478C46.0375 44.6731 43.8296 44.6771 41.6663 44.8478C40.7725 44.9189 40.0311 45.5668 39.8422 46.4443L38.3147 53.5232C37.1082 53.7731 35.9179 54.0899 34.756 54.4739L29.9013 49.1154C29.3 48.4512 28.3352 48.2603 27.5227 48.6462C25.463 49.6253 23.5597 50.716 21.8657 51.8881C21.1283 52.3979 20.8135 53.3303 21.0877 54.1814L23.3038 61.0612C22.3816 61.8839 21.5061 62.7593 20.6835 63.6815L13.8057 61.4654C12.9525 61.1892 12.0202 61.506 11.5124 62.2434C10.3404 63.9374 9.24957 65.8407 8.27051 67.9004C7.88457 68.7109 8.07551 69.6778 8.73973 70.279L14.0982 75.1337C13.7163 76.2976 13.3974 77.4879 13.1475 78.6945L6.06863 80.222C5.19316 80.4109 4.5452 81.1523 4.47207 82.044C4.38676 83.1267 4.30957 84.2093 4.30957 85.3123C4.30957 86.4153 4.38676 87.4979 4.47207 88.5785ZM8.41473 83.8721L15.325 82.3792C16.1416 82.2024 16.7672 81.5443 16.9013 80.7196C17.206 78.8468 17.6975 77.0085 18.3618 75.2535C18.6583 74.4735 18.445 73.5899 17.8255 73.0293L12.6072 68.3006C13.0622 67.4292 13.5375 66.5943 14.0291 65.8042L20.7241 67.9614C21.5163 68.2153 22.3897 67.9614 22.9199 67.3154C24.1183 65.8489 25.4711 64.4981 26.9377 63.2976C27.5836 62.7695 27.8416 61.8981 27.5836 61.1018L25.4264 54.4068C26.2166 53.9132 27.0494 53.4379 27.9229 52.9849L32.6516 58.2053C33.2143 58.8248 34.0999 59.0381 34.8779 58.7415C36.6288 58.0773 38.4671 57.5857 40.3419 57.281C41.1666 57.147 41.8247 56.5214 42.0014 55.7048L43.4924 48.7945C44.4491 48.7437 45.4221 48.7417 46.3747 48.7945L47.8677 55.7048C48.0444 56.5214 48.7025 57.147 49.5272 57.281C51.4 57.5857 53.2383 58.0773 54.9933 58.7415C55.7693 59.0381 56.6549 58.8268 57.2175 58.2053L61.9463 52.987C62.8177 53.442 63.6525 53.9173 64.4427 54.4089L62.2855 61.1039C62.0296 61.9001 62.2855 62.7695 62.9314 63.2996C64.398 64.4981 65.7488 65.8509 66.9493 67.3174C67.4794 67.9654 68.3508 68.2234 69.145 67.9634L75.84 65.8062C76.3336 66.5964 76.8089 67.4292 77.2619 68.3006L72.0416 73.0293C71.4221 73.5899 71.2088 74.4735 71.5054 75.2556C72.1696 77.0065 72.6611 78.8448 72.9658 80.7196C73.0999 81.5443 73.7255 82.2024 74.5421 82.3792L81.4524 83.8701C81.4788 84.3475 81.4971 84.8289 81.4971 85.3123C81.4971 85.7957 81.4808 86.2771 81.4544 86.7525L74.5441 88.2454C73.7275 88.4221 73.1019 89.0803 72.9678 89.905C72.6632 91.7778 72.1716 93.616 71.5074 95.371C71.2108 96.151 71.4241 97.0346 72.0436 97.5953L77.2619 102.324C76.8069 103.195 76.3316 104.03 75.84 104.82L69.145 102.663C68.3468 102.403 67.4794 102.661 66.9493 103.309C65.7529 104.772 64.4 106.124 62.9314 107.327C62.2855 107.855 62.0296 108.727 62.2855 109.521L64.4427 116.216C63.6525 116.709 62.8197 117.185 61.9483 117.638L57.2196 112.417C56.6589 111.798 55.7754 111.589 54.9933 111.881C53.2424 112.545 51.4041 113.037 49.5293 113.342C48.7046 113.476 48.0464 114.101 47.8697 114.918L46.3788 121.828C45.4221 121.879 44.4491 121.881 43.4964 121.828L42.0035 114.918C41.8268 114.101 41.1686 113.476 40.3439 113.342C38.4711 113.037 36.6329 112.545 34.8779 111.881C34.0999 111.584 33.2143 111.796 32.6536 112.417L27.9249 117.636C27.0535 117.181 26.2186 116.705 25.4285 116.214L27.5857 109.519C27.8416 108.722 27.5857 107.853 26.9397 107.323C25.4732 106.124 24.1224 104.772 22.9219 103.305C22.3918 102.657 21.5183 102.401 20.7261 102.659L14.0311 104.816C13.5375 104.026 13.0622 103.193 12.6093 102.32L17.8296 97.5912C18.4491 97.0306 18.6624 96.147 18.3658 95.365C17.7016 93.614 17.21 91.7757 16.9054 89.9009C16.7713 89.0762 16.1457 88.4181 15.3291 88.2414L8.41473 86.7545C8.39035 86.2771 8.37207 85.7957 8.37207 85.3123C8.37207 84.8289 8.38832 84.3475 8.41473 83.8721Z" fill="url(#paint0_linear)"/>
<path d="M110.379 32.9773C111.143 32.7376 111.696 32.0693 111.787 31.2731C111.909 30.2473 111.966 29.319 111.966 28.4375C111.966 27.5559 111.909 26.6276 111.789 25.6018C111.698 24.8056 111.145 24.1373 110.381 23.8976L104.749 22.1284C104.58 21.6673 104.393 21.2143 104.188 20.7715L106.918 15.5411C107.288 14.8321 107.207 13.9709 106.711 13.3412C105.535 11.8543 104.182 10.5015 102.691 9.32137C102.061 8.82371 101.2 8.74449 100.491 9.11215L95.2568 11.8421C94.8139 11.639 94.361 11.4521 93.8999 11.2836L92.1307 5.6509C91.891 4.88715 91.2227 4.33465 90.4264 4.24324C88.3708 4.00355 86.8088 4.00355 84.7532 4.24324C83.9569 4.33465 83.2886 4.88715 83.0489 5.6509L81.2797 11.2836C80.8186 11.4521 80.3657 11.639 79.9228 11.8442L74.6924 9.11418C73.9835 8.74652 73.1243 8.82574 72.4925 9.32137C71.0057 10.4975 69.6529 11.8503 68.4727 13.3412C67.975 13.9709 67.8938 14.8301 68.2635 15.5411L70.9914 20.7715C70.7883 21.2143 70.6014 21.6673 70.4329 22.1284L64.8002 23.8976C64.0364 24.1373 63.4839 24.8056 63.3925 25.6018C63.2727 26.6276 63.2158 27.5559 63.2158 28.4375C63.2158 29.319 63.2727 30.2473 63.3925 31.2731C63.4839 32.0693 64.0364 32.7376 64.8002 32.9773L70.4329 34.7465C70.6014 35.2076 70.7883 35.6606 70.9935 36.1034L68.2635 41.3339C67.8938 42.0428 67.975 42.904 68.4707 43.5337C69.6468 45.0206 70.9996 46.3734 72.4905 47.5536C73.1182 48.0512 73.9814 48.1304 74.6903 47.7628L79.9208 45.0348C80.3636 45.2379 80.8166 45.4248 81.2777 45.5934L83.0469 51.2261C83.2866 51.9898 83.9549 52.5423 84.7511 52.6337C85.781 52.7556 86.7093 52.8125 87.5908 52.8125C88.4724 52.8125 89.4007 52.7556 90.4264 52.6357C91.2227 52.5443 91.891 51.9918 92.1307 51.2281L93.8999 45.5954C94.361 45.4268 94.8139 45.24 95.2568 45.0348L100.487 47.7648C101.196 48.1345 102.057 48.0553 102.687 47.5576C104.174 46.3815 105.527 45.0287 106.707 43.5378C107.205 42.9081 107.286 42.0489 106.916 41.3379L104.186 36.1075C104.391 35.6646 104.578 35.2117 104.747 34.7506L110.379 32.9773ZM102.539 31.1817C101.897 31.3848 101.397 31.8906 101.202 32.5365C100.926 33.4546 100.56 34.3382 100.118 35.165C99.7986 35.7581 99.7925 36.4711 100.105 37.0662L102.683 42.0062C102.202 42.5404 101.692 43.0503 101.16 43.5296L96.2196 40.952C95.6224 40.6392 94.9094 40.6473 94.3183 40.9642C93.4916 41.407 92.608 41.7726 91.6899 42.0489C91.046 42.2418 90.5382 42.7436 90.335 43.3854L88.6613 48.7154C87.9199 48.7601 87.2638 48.7601 86.5204 48.7154L84.8466 43.3854C84.6435 42.7436 84.1377 42.2439 83.4918 42.0489C82.5716 41.7726 81.688 41.407 80.8654 40.9642C80.2722 40.6453 79.5593 40.6392 78.9621 40.952L74.0221 43.5296C73.4879 43.0482 72.978 42.5384 72.4986 42.0062L75.0763 37.0662C75.3871 36.4711 75.383 35.7561 75.0641 35.165C74.6213 34.3382 74.2557 33.4546 73.9794 32.5365C73.7864 31.8926 73.2847 31.3848 72.6428 31.1817L67.3128 29.5079C67.2885 29.1362 67.2783 28.7807 67.2783 28.4375C67.2783 28.0942 67.2885 27.7387 67.3128 27.367L72.6428 25.6932C73.2847 25.4901 73.7844 24.9843 73.9794 24.3384C74.2557 23.4182 74.6213 22.5346 75.0641 21.712C75.383 21.1189 75.3891 20.4059 75.0763 19.8087L72.4986 14.8687C72.98 14.3345 73.4899 13.8246 74.0221 13.3453L78.9621 15.9229C79.5572 16.2337 80.2722 16.2276 80.8633 15.9107C81.69 15.4679 82.5736 15.1023 83.4918 14.8261C84.1357 14.6331 84.6435 14.1314 84.8466 13.4895L86.5204 8.15949C87.2618 8.11481 87.9179 8.11481 88.6613 8.15949L90.335 13.4895C90.5382 14.1314 91.0439 14.6311 91.6899 14.8261C92.61 15.1023 93.4936 15.4679 94.3163 15.9107C94.9094 16.2296 95.6224 16.2357 96.2196 15.9229L101.16 13.3453C101.694 13.8267 102.204 14.3365 102.683 14.8687L100.105 19.8087C99.7946 20.4039 99.7986 21.1189 100.118 21.71C100.56 22.5367 100.926 23.4203 101.202 24.3384C101.395 24.9823 101.897 25.4901 102.539 25.6932L107.869 27.367C107.893 27.7387 107.903 28.0942 107.903 28.4375C107.903 28.7807 107.893 29.1362 107.869 29.5079L102.539 31.1817Z" fill="url(#paint1_linear)"/>
<path d="M124.686 71.0206L121.196 69.7815C120.997 69.2148 120.769 68.6603 120.511 68.122L122.098 64.7806C122.429 64.0859 122.337 63.2653 121.862 62.6599C120.846 61.362 119.672 60.1859 118.37 59.1662C117.763 58.6909 116.938 58.6015 116.248 58.9306L112.904 60.517C112.368 60.261 111.813 60.0315 111.247 59.8345L110.006 56.3448C109.748 55.6196 109.1 55.1017 108.336 55.0082C106.526 54.7909 105.216 54.7909 103.406 55.0082C102.642 55.0996 101.994 55.6176 101.736 56.3448L100.497 59.8345C99.9307 60.0335 99.3761 60.261 98.8378 60.519L95.4964 58.9326C94.8058 58.6035 93.9832 58.6949 93.3758 59.1682C92.0779 60.1838 90.9018 61.3579 89.8821 62.6599C89.4088 63.2653 89.3174 64.0879 89.6464 64.7826L91.2329 68.126C90.9769 68.6623 90.7474 69.2168 90.5504 69.7835L87.0607 71.0246C86.3355 71.2826 85.8175 71.9306 85.7241 72.6943C85.6124 73.5942 85.5596 74.4006 85.5596 75.1562C85.5596 75.9118 85.6124 76.7162 85.7221 77.6201C85.8135 78.3838 86.3314 79.0318 87.0586 79.2898L90.5483 80.5288C90.7474 81.0956 90.9749 81.6501 91.2329 82.1884L89.6464 85.5298C89.3154 86.2245 89.4068 87.0451 89.8821 87.6504C90.8977 88.9484 92.0718 90.1245 93.3738 91.1442C93.9791 91.6174 94.8038 91.7088 95.4964 91.3798L98.8399 89.7934C99.3761 90.0493 99.9307 90.2788 100.497 90.4759L101.738 93.9656C101.996 94.6907 102.644 95.2087 103.408 95.3021C104.312 95.4159 105.116 95.4687 105.872 95.4687C106.628 95.4687 107.432 95.4159 108.336 95.3062C109.1 95.2148 109.748 94.6968 110.006 93.9696L111.245 90.4799C111.811 90.2809 112.366 90.0534 112.904 89.7954L116.246 91.3818C116.938 91.7129 117.763 91.6235 118.366 91.1462C119.664 90.1306 120.84 88.9565 121.86 87.6545C122.333 87.0492 122.425 86.2265 122.096 85.5318L120.509 82.1884C120.765 81.6521 120.995 81.0976 121.192 80.5309L124.681 79.2898C125.407 79.0318 125.925 78.3838 126.018 77.6201C126.132 76.7162 126.185 75.9118 126.185 75.1562C126.185 74.4006 126.132 73.5962 126.022 72.6923C125.931 71.9265 125.413 71.2806 124.686 71.0206ZM122.102 75.8976L118.882 77.0412C118.259 77.2626 117.781 77.7745 117.605 78.4123C117.338 79.3771 116.959 80.2973 116.477 81.1484C116.152 81.7232 116.128 82.422 116.41 83.0192L117.869 86.0924C117.531 86.4621 117.178 86.8156 116.81 87.1507L113.737 85.6923C113.144 85.4099 112.443 85.4343 111.866 85.7593C111.013 86.2428 110.093 86.6206 109.132 86.8867C108.494 87.0634 107.983 87.5407 107.759 88.1643L106.616 91.3838C106.124 91.4102 105.624 91.4102 105.133 91.3838L103.989 88.1643C103.768 87.5407 103.256 87.0634 102.618 86.8867C101.653 86.6206 100.733 86.2407 99.8819 85.7593C99.3071 85.4363 98.6104 85.412 98.0111 85.6923L94.9379 87.1507C94.5682 86.8135 94.2147 86.4601 93.8796 86.0924L95.338 83.0192C95.6224 82.422 95.596 81.7232 95.271 81.1484C94.7875 80.2953 94.4097 79.3751 94.1436 78.4143C93.9669 77.7765 93.4896 77.2646 92.866 77.0412L89.6464 75.8976C89.6302 75.6518 89.6221 75.406 89.6221 75.1562C89.6221 74.9063 89.6302 74.6585 89.6424 74.4148L92.8619 73.2692C93.4855 73.0478 93.9629 72.5359 94.1375 71.8981C94.4057 70.9312 94.7855 70.0131 95.2669 69.162C95.5919 68.5871 95.6163 67.8884 95.3339 67.2912L93.8755 64.2179C94.2127 63.8482 94.5661 63.4948 94.9338 63.1596L98.0071 64.6181C98.6043 64.9024 99.303 64.8781 99.8779 64.551C100.731 64.0676 101.651 63.6898 102.612 63.4237C103.25 63.247 103.762 62.7696 103.985 62.146L105.129 58.9265C105.62 58.9001 106.12 58.9001 106.611 58.9265L107.755 62.146C107.976 62.7696 108.488 63.247 109.126 63.4237C110.091 63.6898 111.011 64.0696 111.862 64.551C112.439 64.8781 113.136 64.9024 113.733 64.6181L116.806 63.1596C117.176 63.4968 117.529 63.8503 117.865 64.2179L116.406 67.2912C116.122 67.8884 116.148 68.5871 116.473 69.162C116.957 70.0151 117.334 70.9353 117.601 71.896C117.777 72.5338 118.255 73.0457 118.878 73.2692L122.098 74.4128C122.114 74.6606 122.122 74.9063 122.122 75.1562C122.122 75.406 122.114 75.6518 122.102 75.8976Z" fill="url(#paint2_linear)"/>
<path d="M44.9346 107.656C57.2541 107.656 67.2783 97.632 67.2783 85.3125C67.2783 72.993 57.2541 62.9688 44.9346 62.9688C32.615 62.9688 22.5908 72.993 22.5908 85.3125C22.5908 97.632 32.615 107.656 44.9346 107.656ZM44.9346 67.0312C55.0136 67.0312 63.2158 75.2334 63.2158 85.3125C63.2158 95.3916 55.0136 103.594 44.9346 103.594C34.8555 103.594 26.6533 95.3916 26.6533 85.3125C26.6533 75.2334 34.8555 67.0312 44.9346 67.0312Z" fill="url(#paint3_linear)"/>
<path d="M4.354 51.5105L7.474 54.1126C16.7751 42.959 30.4271 36.5626 44.9343 36.5626C45.9682 36.5626 47.0001 36.6215 48.032 36.6865L45.5295 39.189L48.4017 42.0612L54.4954 35.9674C55.2896 35.1732 55.2896 33.8894 54.4954 33.0952L48.4017 27.0015L45.5295 29.8737L48.2899 32.6341C47.1728 32.563 46.0535 32.5001 44.9343 32.5001C29.2206 32.5001 14.429 39.4286 4.354 51.5105Z" fill="url(#paint4_linear)"/>
<path d="M87.5908 18.2812C81.9907 18.2812 77.4346 22.8373 77.4346 28.4375C77.4346 34.0377 81.9907 38.5938 87.5908 38.5938C93.191 38.5938 97.7471 34.0377 97.7471 28.4375C97.7471 22.8373 93.191 18.2812 87.5908 18.2812ZM87.5908 34.5312C84.2311 34.5312 81.4971 31.7972 81.4971 28.4375C81.4971 25.0778 84.2311 22.3438 87.5908 22.3438C90.9505 22.3438 93.6846 25.0778 93.6846 28.4375C93.6846 31.7972 90.9505 34.5312 87.5908 34.5312Z" fill="url(#paint5_linear)"/>
<path d="M105.872 67.0312C101.391 67.0312 97.7471 70.6753 97.7471 75.1562C97.7471 79.6372 101.391 83.2812 105.872 83.2812C110.353 83.2812 113.997 79.6372 113.997 75.1562C113.997 70.6753 110.353 67.0312 105.872 67.0312ZM105.872 79.2188C103.632 79.2188 101.81 77.3967 101.81 75.1562C101.81 72.9158 103.632 71.0938 105.872 71.0938C108.113 71.0938 109.935 72.9158 109.935 75.1562C109.935 77.3967 108.113 79.2188 105.872 79.2188Z" fill="url(#paint6_linear)"/>
<path d="M124.551 10.1968L114.395 8.16556C113.29 7.94212 112.224 8.65915 112.004 9.75806L109.973 19.9143L113.956 20.7126L115.051 15.2445C117.02 19.3395 118.06 23.8529 118.06 28.4374C118.06 35.4412 115.748 42.0265 111.377 47.4804L114.548 50.0215C119.433 43.9257 122.122 36.2618 122.122 28.4374C122.122 23.1176 120.893 17.8729 118.555 13.1401L123.755 14.1801L124.551 10.1968Z" fill="url(#paint7_linear)"/>
</g>
<defs>
<filter id="filter0_d" x="-3.75293" y="0" width="138" height="138" filterUnits="userSpaceOnUse" color-interpolation-filters="sRGB">
<feFlood flood-opacity="0" result="BackgroundImageFix"/>
<feColorMatrix in="SourceAlpha" type="matrix" values="0 0 0 0 0 0 0 0 0 0 0 0 0 0 0 0 0 0 127 0"/>
<feOffset dy="4"/>
<feGaussianBlur stdDeviation="2"/>
<feColorMatrix type="matrix" values="0 0 0 0 0 0 0 0 0 0 0 0 0 0 0 0 0 0 0.25 0"/>
<feBlend mode="normal" in2="BackgroundImageFix" result="effect1_dropShadow"/>
<feBlend mode="normal" in="SourceGraphic" in2="effect1_dropShadow" result="shape"/>
</filter>
<linearGradient id="paint0_linear" x1="44.9346" y1="44.7183" x2="44.9346" y2="125.937" gradientUnits="userSpaceOnUse">
<stop stop-color="#FF9999"/>
<stop offset="0.461458" stop-color="#FF8A8B"/>
<stop offset="1" stop-color="#561E1F"/>
</linearGradient>
<linearGradient id="paint1_linear" x1="87.5908" y1="4.06348" x2="87.5908" y2="52.8125" gradientUnits="userSpaceOnUse">
<stop stop-color="#FF9999"/>
<stop offset="0.461458" stop-color="#FF8A8B"/>
<stop offset="1" stop-color="#561E1F"/>
</linearGradient>
<linearGradient id="paint2_linear" x1="105.872" y1="54.8452" x2="105.872" y2="95.4687" gradientUnits="userSpaceOnUse">
<stop stop-color="#FF9999"/>
<stop offset="0.461458" stop-color="#FF8A8B"/>
<stop offset="1" stop-color="#561E1F"/>
</linearGradient>
<linearGradient id="paint3_linear" x1="44.9346" y1="62.9688" x2="44.9346" y2="107.656" gradientUnits="userSpaceOnUse">
<stop stop-color="#FF9999"/>
<stop offset="0.461458" stop-color="#FF8A8B"/>
<stop offset="1" stop-color="#561E1F"/>
</linearGradient>
<linearGradient id="paint4_linear" x1="29.7225" y1="27.0015" x2="29.7225" y2="54.1126" gradientUnits="userSpaceOnUse">
<stop stop-color="#FF9999"/>
<stop offset="0.461458" stop-color="#FF8A8B"/>
<stop offset="1" stop-color="#561E1F"/>
</linearGradient>
<linearGradient id="paint5_linear" x1="87.5908" y1="18.2812" x2="87.5908" y2="38.5938" gradientUnits="userSpaceOnUse">
<stop stop-color="#FF9999"/>
<stop offset="0.461458" stop-color="#FF8A8B"/>
<stop offset="1" stop-color="#561E1F"/>
</linearGradient>
<linearGradient id="paint6_linear" x1="105.872" y1="67.0312" x2="105.872" y2="83.2812" gradientUnits="userSpaceOnUse">
<stop stop-color="#FF9999"/>
<stop offset="0.461458" stop-color="#FF8A8B"/>
<stop offset="1" stop-color="#561E1F"/>
</linearGradient>
<linearGradient id="paint7_linear" x1="117.262" y1="8.12476" x2="117.262" y2="50.0215" gradientUnits="userSpaceOnUse">
<stop stop-color="#FF9999"/>
<stop offset="0.461458" stop-color="#FF8A8B"/>
<stop offset="1" stop-color="#561E1F"/>
</linearGradient>
</defs>
</svg>
