<svg width="130" height="130" viewBox="0 0 130 130" fill="none" xmlns="http://www.w3.org/2000/svg">
<g clip-path="url(#clip0)">
<path d="M60.6075 48.3301V25.7825C65.8829 24.4271 69.793 19.6307 69.793 13.938C69.793 7.19572 64.308 1.71069 57.5657 1.71069C50.8238 1.71069 45.3388 7.19572 45.3388 13.938C45.3388 19.6307 49.2489 24.4267 54.5239 25.7821V48.3297C48.1259 49.2926 42.6936 53.2433 39.6976 58.7113L26.3176 48.3099C26.6449 47.3888 26.8246 46.398 26.8246 45.3662C26.8246 40.5033 22.8682 36.5469 18.0053 36.5469C13.1424 36.5469 9.18604 40.5033 9.18604 45.3662C9.18604 50.2291 13.1424 54.1855 18.0053 54.1855C19.6163 54.1855 21.1262 53.7491 22.4273 52.9918L37.5513 64.7491C37.3282 65.9541 37.2057 67.1935 37.2057 68.4622C37.2057 72.9803 38.6869 77.1577 41.1865 80.539L24.0861 97.6394C22.8982 98.8273 22.8982 100.753 24.0861 101.941C24.6803 102.535 25.459 102.832 26.2373 102.832C27.0156 102.832 27.7943 102.535 28.3885 101.941L45.4888 84.8406C48.0963 86.7683 51.1774 88.0901 54.5239 88.5938V111.192C51.1551 112.434 48.7464 115.676 48.7464 119.47C48.7464 124.333 52.7028 128.289 57.5657 128.289C62.4286 128.289 66.385 124.333 66.385 119.47C66.385 115.675 63.9762 112.433 60.6075 111.192V88.5942C70.3965 87.1216 77.9257 78.6551 77.9257 68.4626C77.9257 58.2692 70.3961 49.8028 60.6075 48.3301ZM18.0053 48.1022C16.4966 48.1022 15.2697 46.8749 15.2697 45.3666C15.2697 43.8583 16.4966 42.631 18.0053 42.631C19.5141 42.631 20.7409 43.8583 20.7409 45.3666C20.7409 46.8749 19.5136 48.1022 18.0053 48.1022ZM51.422 13.938C51.422 10.5502 54.1779 7.79435 57.5653 7.79435C60.9527 7.79435 63.709 10.5502 63.709 13.938C63.709 17.3258 60.9527 20.0817 57.5653 20.0817C54.1779 20.0817 51.422 17.3258 51.422 13.938ZM57.5657 122.206C56.0569 122.206 54.8301 120.978 54.8301 119.47C54.8301 118.15 55.7698 117.045 57.0157 116.79C57.1942 116.823 57.3775 116.842 57.5657 116.842C57.7539 116.842 57.9372 116.823 58.1157 116.79C59.3616 117.045 60.3013 118.15 60.3013 119.47C60.3013 120.978 59.074 122.206 57.5657 122.206ZM57.5657 82.7381C49.6938 82.7381 43.2898 76.3336 43.2898 68.4618C43.2898 67.0727 43.493 65.7306 43.8645 64.4599C43.8844 64.3971 43.903 64.3346 43.9184 64.2709C45.7131 58.4379 51.1515 54.1855 57.5657 54.1855C65.4375 54.1855 71.842 60.5899 71.842 68.4618C71.842 76.334 65.4375 82.7381 57.5657 82.7381Z" fill="url(#paint0_linear)"/>
<path d="M117.773 38.9163C111.031 38.9163 105.546 44.4013 105.546 51.1436C105.546 51.4579 105.561 51.7682 105.585 52.0764L83.5872 59.5768C81.9969 60.1186 81.1472 61.8476 81.6895 63.4375C82.1206 64.7025 83.3025 65.4986 84.5683 65.4986C84.894 65.4986 85.2249 65.4459 85.5502 65.3352L107.547 57.8352C109.734 61.1658 113.5 63.3714 117.773 63.3714C124.515 63.3714 130 57.8863 130 51.144C130 44.4017 124.515 38.9163 117.773 38.9163ZM117.773 57.2877C114.385 57.2877 111.629 54.5318 111.629 51.144C111.629 47.7562 114.385 45.0003 117.773 45.0003C121.16 45.0003 123.916 47.7562 123.916 51.144C123.916 54.5314 121.16 57.2877 117.773 57.2877Z" fill="url(#paint1_linear)"/>
<path d="M12.2273 101.573C5.48502 101.573 0 107.058 0 113.8C0 120.542 5.48502 126.027 12.2273 126.027C18.9692 126.027 24.4543 120.542 24.4543 113.8C24.4547 107.058 18.9692 101.573 12.2273 101.573ZM12.2273 119.944C8.83955 119.944 6.08365 117.188 6.08365 113.8C6.08365 110.413 8.83996 107.657 12.2273 107.657C15.6147 107.657 18.3706 110.413 18.3706 113.8C18.371 117.188 15.6151 119.944 12.2273 119.944Z" fill="url(#paint2_linear)"/>
</g>
<defs>
<linearGradient id="paint0_linear" x1="43.5558" y1="1.71069" x2="43.5558" y2="128.289" gradientUnits="userSpaceOnUse">
<stop stop-color="#FF9999"/>
<stop offset="0.477083" stop-color="#FF8A8B"/>
<stop offset="1" stop-color="#561E1F"/>
</linearGradient>
<linearGradient id="paint1_linear" x1="105.763" y1="38.9163" x2="105.763" y2="65.4986" gradientUnits="userSpaceOnUse">
<stop stop-color="#FF9999"/>
<stop offset="0.477083" stop-color="#FF8A8B"/>
<stop offset="1" stop-color="#561E1F"/>
</linearGradient>
<linearGradient id="paint2_linear" x1="12.2271" y1="101.573" x2="12.2271" y2="126.027" gradientUnits="userSpaceOnUse">
<stop stop-color="#FF9999"/>
<stop offset="0.477083" stop-color="#FF8A8B"/>
<stop offset="1" stop-color="#561E1F"/>
</linearGradient>
<clipPath id="clip0">
<rect width="130" height="130" fill="white"/>
</clipPath>
</defs>
</svg>
