<svg width="130" height="130" viewBox="0 0 130 130" fill="none" xmlns="http://www.w3.org/2000/svg">
<path d="M36.5586 13.8647H62.8582C63.2622 13.8647 63.6497 13.7042 63.9354 13.4185C64.2211 13.1328 64.3816 12.7453 64.3816 12.3413C64.3816 11.9373 64.2211 11.5498 63.9354 11.2641C63.6497 10.9784 63.2622 10.8179 62.8582 10.8179H36.5586C36.1546 10.8179 35.7671 10.9784 35.4814 11.2641C35.1957 11.5498 35.0352 11.9373 35.0352 12.3413C35.0352 12.7453 35.1957 13.1328 35.4814 13.4185C35.7671 13.7042 36.1546 13.8647 36.5586 13.8647Z" fill="url(#paint0_linear)"/>
<path d="M35.3735 23.541H62.8584C63.2624 23.541 63.6499 23.3805 63.9356 23.0948C64.2213 22.8091 64.3818 22.4216 64.3818 22.0176C64.3818 21.6135 64.2213 21.226 63.9356 20.9403C63.6499 20.6546 63.2624 20.4941 62.8584 20.4941H35.3735C34.9695 20.4941 34.582 20.6546 34.2963 20.9403C34.0106 21.226 33.8501 21.6135 33.8501 22.0176C33.8501 22.4216 34.0106 22.8091 34.2963 23.0948C34.582 23.3805 34.9695 23.541 35.3735 23.541Z" fill="url(#paint1_linear)"/>
<path d="M35.3735 33.2178H96.7335C97.1376 33.2178 97.5251 33.0573 97.8108 32.7716C98.0965 32.4859 98.257 32.0984 98.257 31.6943C98.257 31.2903 98.0965 30.9028 97.8108 30.6171C97.5251 30.3314 97.1376 30.1709 96.7335 30.1709H35.3735C34.9695 30.1709 34.582 30.3314 34.2963 30.6171C34.0106 30.9028 33.8501 31.2903 33.8501 31.6943C33.8501 32.0984 34.0106 32.4859 34.2963 32.7716C34.582 33.0573 34.9695 33.2178 35.3735 33.2178Z" fill="url(#paint2_linear)"/>
<path d="M96.7335 42.894C97.1376 42.894 97.5251 42.7335 97.8108 42.4478C98.0965 42.1621 98.257 41.7746 98.257 41.3706C98.257 40.9666 98.0965 40.5791 97.8108 40.2934C97.5251 40.0077 97.1376 39.8472 96.7335 39.8472H35.3735C34.9695 39.8472 34.582 40.0077 34.2963 40.2934C34.0106 40.5791 33.8501 40.9666 33.8501 41.3706C33.8501 41.7746 34.0106 42.1621 34.2963 42.4478C34.582 42.7335 34.9695 42.894 35.3735 42.894H96.7335Z" fill="url(#paint3_linear)"/>
<path d="M95.0065 101.375C95.3151 101.804 95.7212 102.153 96.1915 102.394C96.6617 102.635 97.1825 102.761 97.7109 102.761C98.1693 102.76 98.6229 102.666 99.0439 102.485L104.828 100.002C105.239 99.8263 105.61 99.5699 105.92 99.2477C106.23 98.9256 106.471 98.5443 106.63 98.1266C106.789 97.7089 106.862 97.2635 106.844 96.817C106.827 96.3705 106.72 95.9321 106.529 95.528L104.517 91.2756L104.076 7.10259C104.065 5.54647 103.436 4.05846 102.329 2.96496C101.222 1.87146 99.7263 1.26176 98.1702 1.26961H33.6981C32.1419 1.26176 30.6462 1.87146 29.539 2.96496C28.4318 4.05846 27.8035 5.54647 27.792 7.10259V87.6074L23.5355 95.6841C23.1269 96.4508 23.0369 97.3475 23.2849 98.1801C23.5329 99.0126 24.0989 99.7139 24.8603 100.132L30.3516 103.199C30.8497 103.479 31.4114 103.627 31.9829 103.627C32.3068 103.627 32.629 103.58 32.9396 103.488C33.3671 103.364 33.7651 103.155 34.11 102.873C34.4549 102.592 34.7396 102.244 34.947 101.85L35.5417 100.728L37.5221 102.364L34.0449 107.149C33.4707 107.938 33.1261 108.871 33.0493 109.845C32.9725 110.818 33.1664 111.793 33.6096 112.663C34.0529 113.533 34.7281 114.264 35.5607 114.774C36.3933 115.284 37.3507 115.553 38.327 115.553C38.6363 115.553 38.945 115.526 39.2497 115.473C39.2512 115.483 39.2515 115.493 39.253 115.503C39.3631 116.193 39.6098 116.854 39.9785 117.448C40.3473 118.041 40.8307 118.556 41.4006 118.96C42.2985 119.602 43.375 119.946 44.4787 119.945C44.7886 119.944 45.098 119.918 45.4034 119.864C45.4052 119.875 45.4054 119.885 45.4069 119.896C45.6082 121.137 46.2446 122.265 47.2021 123.079C48.1596 123.894 49.3757 124.34 50.6326 124.339C50.9418 124.339 51.2504 124.313 51.555 124.26C51.5566 124.27 51.5568 124.28 51.5583 124.289C51.7599 125.53 52.3965 126.658 53.3542 127.472C54.3119 128.286 55.528 128.732 56.7847 128.731C57.6249 128.733 58.4536 128.536 59.203 128.156C59.9524 127.776 60.6012 127.224 61.0963 126.545L62.1983 125.029L64.2605 126.662C65.4049 127.626 66.8815 128.103 68.3736 127.991C69.8656 127.879 71.2541 127.186 72.241 126.061C72.9721 125.227 73.4385 124.194 73.5806 123.095C74.6279 123.408 75.743 123.414 76.7934 123.111C77.8437 122.808 78.785 122.21 79.505 121.388C80.2358 120.554 80.7018 119.522 80.8439 118.422C81.8911 118.735 83.0062 118.741 84.0565 118.438C85.1068 118.136 86.048 117.538 86.768 116.715C87.4521 115.932 87.9041 114.974 88.0731 113.948C89.1694 114.372 90.3698 114.449 91.5112 114.167C92.6527 113.886 93.6798 113.26 94.4533 112.375L94.5218 112.296C95.0003 111.748 95.3652 111.11 95.5955 110.42C95.8257 109.729 95.9166 109 95.863 108.274C95.8094 107.549 95.6123 106.841 95.2832 106.192C94.954 105.543 94.4993 104.965 93.9454 104.493L92.6904 103.42C93.5468 102.84 94.3252 102.153 95.0065 101.375ZM103.783 97.0403C103.769 97.0766 103.748 97.1097 103.721 97.1374C103.694 97.1652 103.662 97.1871 103.626 97.2017L97.8416 99.6852C97.7704 99.7165 97.6898 99.7194 97.6164 99.6932C97.5431 99.667 97.4826 99.6137 97.4473 99.5443L96.7168 98.0079C96.6671 97.7998 96.5742 97.6045 96.4441 97.4346L83.2707 69.7517C83.2545 69.7186 83.2455 69.6825 83.2442 69.6457C83.2428 69.6089 83.2493 69.5723 83.2631 69.5381C83.2777 69.501 83.3 69.4674 83.3285 69.4395C83.357 69.4116 83.3912 69.3901 83.4286 69.3764L89.3728 67.0552C89.4435 67.0265 89.5224 67.0256 89.5938 67.0525C89.6652 67.0795 89.7237 67.1324 89.7578 67.2007L103.773 96.8315C103.789 96.8638 103.798 96.899 103.8 96.9349C103.802 96.9708 103.796 97.0067 103.783 97.0403ZM30.8388 7.10259C30.8495 6.35428 31.1564 5.64072 31.6925 5.11843C32.2285 4.59613 32.9497 4.30773 33.6981 4.31648H98.1702C98.9198 4.30815 99.6421 4.59779 100.178 5.12175C100.714 5.64571 101.021 6.36111 101.029 7.11072L101.436 84.7624L92.5114 65.8971C92.1458 65.133 91.505 64.5352 90.7173 64.2236C89.9296 63.912 89.0532 63.9095 88.2638 64.2168L82.3196 66.5377C81.8936 66.7028 81.5062 66.954 81.1817 67.2756C80.8571 67.5972 80.6024 67.9822 80.4334 68.4067C80.2644 68.8311 80.1848 69.2859 80.1995 69.7425C80.2142 70.1992 80.3229 70.6479 80.5189 71.0606L81.1394 72.3649L80.9518 72.4441C78.6826 72.9105 77.0993 72.843 74.7527 72.1902L68.8148 70.5352C67.0551 70.0437 65.1905 70.0736 63.4475 70.6213L57.7163 72.4182C56.5721 72.7762 55.5069 73.35 54.5783 74.1085C53.0572 73.6567 51.4627 73.5054 49.8838 73.6629L50.3002 72.8773C50.6966 72.1263 50.7906 71.2522 50.5628 70.4342C50.3351 69.6162 49.8028 68.9163 49.0754 68.4783L43.6164 65.1864C43.226 64.9508 42.7916 64.7973 42.3398 64.7353C41.888 64.6733 41.4283 64.7041 40.9888 64.8258C40.5493 64.9475 40.1393 65.1576 39.7838 65.4433C39.4282 65.7289 39.1347 66.084 38.9212 66.4869L30.8376 81.8254L30.8388 7.10259ZM32.2549 100.423C32.2365 100.458 32.2112 100.488 32.1807 100.513C32.1501 100.537 32.1149 100.555 32.0771 100.566C32.0375 100.578 31.9959 100.582 31.9547 100.578C31.9135 100.573 31.8736 100.561 31.8374 100.54L26.346 97.4732C26.2823 97.4393 26.2345 97.3817 26.213 97.3129C26.1915 97.2441 26.1979 97.1696 26.2309 97.1055L41.6177 67.9088C41.6363 67.8734 41.6622 67.8422 41.6936 67.8173C41.7249 67.7923 41.7612 67.7742 41.8 67.7641C41.8281 67.7563 41.8571 67.7523 41.8863 67.7522C41.942 67.7523 41.9965 67.7677 42.044 67.7969L47.5014 71.0888C47.5628 71.1237 47.6082 71.181 47.628 71.2488C47.6479 71.3165 47.6406 71.3893 47.6078 71.4518L32.2549 100.423ZM37.0214 112.09C36.78 111.917 36.575 111.699 36.4184 111.446C36.2619 111.194 36.1568 110.914 36.1092 110.621C36.0616 110.328 36.0725 110.029 36.1412 109.74C36.2099 109.451 36.3351 109.179 36.5096 108.939L42.2156 101.089C42.5683 100.607 43.0967 100.283 43.6867 100.187C44.2766 100.091 44.8806 100.231 45.3678 100.577C45.6092 100.749 45.8141 100.968 45.9706 101.22C46.1272 101.472 46.2323 101.752 46.2798 102.045C46.3274 102.337 46.3165 102.637 46.2478 102.925C46.1791 103.214 46.0539 103.486 45.8795 103.726L44.3322 105.854L40.1958 111.544L40.1717 111.577C39.8194 112.059 39.2913 112.383 38.7017 112.479C38.1121 112.575 37.5085 112.435 37.0214 112.09ZM43.1713 116.482C42.9303 116.31 42.7256 116.092 42.5693 115.84C42.413 115.589 42.308 115.309 42.2604 115.017C42.2128 114.724 42.2236 114.425 42.292 114.137C42.3605 113.849 42.4854 113.577 42.6594 113.338L46.7981 107.646C47.1507 107.164 47.6785 106.841 48.2676 106.745C48.8566 106.65 49.4597 106.789 49.9465 107.135C50.188 107.307 50.393 107.526 50.5495 107.778C50.7061 108.03 50.8112 108.31 50.8588 108.603C50.9064 108.896 50.8955 109.195 50.8268 109.484C50.7581 109.773 50.6329 110.045 50.4584 110.285L49.1549 112.078L46.3507 115.934L46.3266 115.967C45.9737 116.45 45.4448 116.774 44.8544 116.871C44.2639 116.967 43.6593 116.827 43.1713 116.481V116.482ZM49.327 120.878C49.0855 120.705 48.8806 120.487 48.724 120.235C48.5674 119.983 48.4623 119.702 48.4147 119.409C48.3671 119.116 48.378 118.817 48.4467 118.528C48.5155 118.239 48.6407 117.967 48.8151 117.727L51.6614 113.812C52.0142 113.329 52.5426 113.005 53.1325 112.909C53.7224 112.813 54.3263 112.953 54.8137 113.299C55.055 113.472 55.2599 113.69 55.4164 113.942C55.5729 114.194 55.678 114.474 55.7255 114.767C55.773 115.06 55.7621 115.359 55.6934 115.647C55.6247 115.936 55.4995 116.208 55.325 116.448L53.4357 119.047L52.5013 120.332V120.334L52.4775 120.366C52.1246 120.848 51.5963 121.172 51.0068 121.267C50.4173 121.363 49.8139 121.222 49.327 120.876V120.878ZM58.6317 124.756C58.2786 125.239 57.7497 125.563 57.1594 125.659C56.569 125.755 55.9646 125.615 55.4769 125.269C55.2359 125.097 55.0314 124.879 54.8751 124.627C54.7188 124.375 54.6138 124.095 54.5663 123.803C54.5187 123.511 54.5294 123.212 54.5978 122.924C54.6663 122.636 54.7911 122.364 54.965 122.124L56.5273 119.975C56.8801 119.493 57.4086 119.169 57.9984 119.073C58.5883 118.977 59.1922 119.117 59.6795 119.463C59.9209 119.636 60.1258 119.854 60.2823 120.106C60.4388 120.358 60.5438 120.638 60.5914 120.931C60.6389 121.224 60.628 121.523 60.5593 121.811C60.4905 122.1 60.3653 122.372 60.1909 122.612L58.6317 124.756ZM92.2234 110.295L92.1552 110.374C91.6939 110.903 91.0428 111.23 90.3428 111.283C89.6427 111.336 88.9497 111.111 88.4138 110.658L86.1924 108.755C86.1889 108.752 86.1861 108.749 86.1825 108.746L80.2947 103.705C80.1435 103.569 79.9668 103.465 79.7749 103.399C79.583 103.333 79.3798 103.306 79.1772 103.319C78.9746 103.332 78.7768 103.386 78.5952 103.477C78.4137 103.568 78.2522 103.694 78.1202 103.849C77.9882 104.003 77.8884 104.182 77.8266 104.375C77.7648 104.569 77.7423 104.772 77.7603 104.975C77.7784 105.177 77.8367 105.373 77.9318 105.553C78.027 105.732 78.157 105.891 78.3142 106.019L78.3447 106.045L78.3955 106.087C78.8837 106.506 81.5848 108.818 84.2117 111.068C84.4698 111.289 84.6815 111.559 84.8345 111.863C84.9875 112.166 85.0788 112.497 85.1031 112.836C85.1274 113.175 85.0842 113.516 84.976 113.838C84.8679 114.161 84.6969 114.458 84.473 114.714C84.0116 115.239 83.3622 115.561 82.6651 115.612C81.9679 115.662 81.279 115.436 80.7472 114.982L74.8583 109.941C74.6389 109.754 74.3706 109.632 74.0847 109.591C73.7988 109.55 73.5071 109.591 73.2437 109.709C72.9802 109.828 72.7558 110.018 72.5966 110.259C72.4375 110.5 72.3501 110.782 72.3446 111.07V111.075C72.3409 111.299 72.3868 111.521 72.479 111.725C72.5711 111.929 72.7073 112.11 72.8778 112.256L76.9403 115.733C77.2002 115.954 77.4135 116.224 77.568 116.528C77.7225 116.832 77.815 117.163 77.8402 117.503C77.8653 117.843 77.8226 118.185 77.7146 118.508C77.6065 118.832 77.4353 119.13 77.2107 119.387C76.7493 119.912 76.0998 120.235 75.4026 120.285C74.7053 120.335 74.0163 120.109 73.4844 119.655L71.6588 118.093L71.6573 118.091L69.4229 116.179C69.1148 115.926 68.7198 115.804 68.3226 115.839C67.9254 115.874 67.5577 116.063 67.2985 116.366C67.0393 116.669 66.9092 117.062 66.9361 117.459C66.963 117.857 67.1448 118.229 67.4425 118.494L69.3848 120.156L69.6761 120.406C69.936 120.626 70.1494 120.897 70.3039 121.201C70.4584 121.505 70.551 121.836 70.5762 122.176C70.6014 122.517 70.5587 122.858 70.4506 123.182C70.3426 123.505 70.1713 123.804 69.9467 124.06C69.4854 124.586 68.8359 124.908 68.1387 124.958C67.4415 125.009 66.7525 124.782 66.2207 124.329C66.2059 124.316 66.1907 124.303 66.1757 124.292L63.5808 122.237C63.7161 121.504 63.6943 120.75 63.5169 120.026C63.3395 119.301 63.0106 118.623 62.5518 118.035C62.093 117.447 61.5147 116.963 60.8552 116.615C60.1957 116.267 59.4698 116.063 58.7256 116.016C58.8519 115.286 58.823 114.538 58.6407 113.82C58.4585 113.101 58.127 112.43 57.6679 111.848C57.2087 111.267 56.6323 110.788 55.976 110.445C55.3198 110.101 54.5984 109.899 53.859 109.852C53.9822 109.139 53.9574 108.408 53.7862 107.705C53.615 107.002 53.301 106.341 52.8637 105.765C52.4264 105.188 51.8751 104.708 51.2442 104.353C50.6133 103.998 49.9162 103.777 49.1962 103.704C49.4951 102.508 49.3688 101.246 48.8387 100.134C48.3087 99.0213 47.4081 98.128 46.2915 97.6071C45.1748 97.0862 43.9117 96.9701 42.7188 97.2788C41.5259 97.5875 40.4776 98.3016 39.7537 99.2988L39.3193 99.8962L37.0009 97.9797L48.0846 77.0639C49.478 76.676 50.9333 76.5617 52.3701 76.7272C52.1919 77.0394 52.0318 77.3616 51.8904 77.6921L50.1385 81.9212C49.6896 83.0053 49.2752 84.1202 48.9068 85.2344L47.1592 90.5215C47.0403 90.8807 47.0593 91.2713 47.2126 91.6173C47.3659 91.9632 47.6424 92.2397 47.9884 92.393L48.365 92.5593C49.762 93.1921 51.296 93.4626 52.8252 93.3456C54.3544 93.2287 55.8295 92.7281 57.1141 91.8903C58.2219 91.1672 59.1534 90.2046 59.8397 89.0736C60.526 87.9425 60.9496 86.6718 61.0793 85.3552C61.0879 85.2675 61.0956 85.1792 61.1024 85.0902C61.186 84.6971 61.7192 82.4902 63.1845 82.318L65.6316 83.002C66.5397 83.2558 67.3693 83.7342 68.0437 84.3932L83.6767 99.7113C83.7021 99.7352 83.7275 99.7583 83.7529 99.7807L91.965 106.809C92.2129 107.019 92.4165 107.277 92.564 107.567C92.7114 107.856 92.7998 108.173 92.8239 108.497C92.848 108.821 92.8074 109.147 92.7044 109.456C92.6014 109.764 92.4381 110.049 92.224 110.294L92.2234 110.295ZM85.7697 97.5001L70.1735 82.2182C69.1327 81.2006 67.8524 80.4615 66.4507 80.0692L63.7644 79.3181C63.629 79.2794 63.4888 79.2604 63.348 79.2617C61.5305 79.2694 59.9804 80.2819 58.9831 82.1129C58.5587 82.9025 58.2566 83.7521 58.087 84.6324C58.0786 84.6822 58.0726 84.7325 58.0693 84.7829C58.0627 84.8764 58.055 84.9695 58.0462 85.0622C57.9592 85.9263 57.6796 86.7598 57.2277 87.5014C56.7759 88.2429 56.1634 88.8737 55.4355 89.3472C54.7125 89.8106 53.9 90.1166 53.0509 90.2452C52.2018 90.3737 51.3352 90.322 50.5074 90.0934L51.797 86.1906C52.1421 85.1465 52.5303 84.1025 52.951 83.0868L54.6966 78.872C55.0559 78.0315 55.5934 77.2791 56.2721 76.6668C56.9507 76.0545 57.7542 75.5969 58.6271 75.3257L64.3583 73.5288C65.5398 73.1577 66.8037 73.1375 67.9965 73.4706L73.9348 75.1248C76.8309 75.9315 78.8693 76.0023 81.7247 75.3958C81.8192 75.3757 81.9117 75.3466 82.0007 75.3089L82.4496 75.1193L93.4945 98.3263C92.6818 99.5825 91.5697 100.617 90.2582 101.337L85.7697 97.5001Z" fill="url(#paint4_linear)"/>
<path d="M40.6285 61.4678C41.5262 61.8763 42.5029 62.0821 43.4892 62.0705C44.9091 62.0777 46.303 61.6899 47.5152 60.9506C48.3829 60.3706 49.1316 59.6299 49.7208 58.7685C49.8209 58.6352 49.9415 58.4745 50.0476 58.3452C50.4603 58.712 50.9154 59.0279 51.4032 59.2865C52.661 59.9489 54.0573 60.3051 55.4787 60.3262C57.1878 60.3555 58.8719 59.9124 60.3453 59.0458C60.52 58.946 60.6732 58.8126 60.7961 58.6533C60.9189 58.494 61.0091 58.312 61.0612 58.1177C61.1133 57.9234 61.1265 57.7207 61.0999 57.5213C61.0732 57.3219 61.0074 57.1297 60.9061 56.9559C60.8048 56.7821 60.6701 56.63 60.5098 56.5085C60.3494 56.3871 60.1666 56.2985 59.9719 56.2481C59.7771 56.1976 59.5743 56.1863 59.3751 56.2146C59.176 56.243 58.9844 56.3105 58.8114 56.4133C57.8236 56.9977 56.6934 57.2977 55.5457 57.2801C54.6045 57.2701 53.679 57.0378 52.8446 56.6022C52.5187 56.4292 52.2177 56.2128 51.9499 55.959C51.4735 55.4611 50.8238 55.1654 50.1355 55.1333C48.6684 55.0917 47.8699 56.1591 47.2841 56.9394C46.913 57.5001 46.4402 57.9864 45.8902 58.3732C44.7646 59.0828 43.0266 59.2326 41.9338 58.7147C41.5661 58.5327 41.2403 58.2762 40.9773 57.9613C42.1699 57.7811 43.2973 57.3013 44.254 56.5669C45.1778 55.8332 45.9203 54.8967 46.4241 53.83C47.0767 52.4155 47.0685 51.0668 46.4013 50.0328C45.8386 49.1612 44.8232 48.5643 43.542 48.352C41.835 48.0686 39.9561 48.4998 38.7551 49.4494C37.4315 50.496 36.6985 52.3063 36.7148 54.4094L36.6863 54.3972C36.315 54.238 35.8956 54.2328 35.5204 54.3828C35.1452 54.5328 34.845 54.8257 34.6858 55.197C34.5266 55.5684 34.5214 55.9878 34.6714 56.363C34.8214 56.7381 35.1142 57.0383 35.4856 57.1976C36.0996 57.4617 36.7362 57.6698 37.3876 57.8194C38.064 59.4787 39.2071 60.7939 40.6285 61.4678ZM40.645 51.8394C41.1857 51.4767 41.8264 51.2925 42.4771 51.3125C42.6669 51.3121 42.8563 51.3272 43.0436 51.3577C43.5796 51.4466 43.8053 51.6287 43.8414 51.6853C44.0024 51.9351 43.509 53.2795 42.3743 54.1687C41.629 54.721 40.7275 55.0222 39.8 55.029C39.6469 53.6409 39.9853 52.3609 40.645 51.8394Z" fill="url(#paint5_linear)"/>
<path d="M96.7335 54.6958H73.8672C73.4631 54.6958 73.0757 54.8563 72.79 55.142C72.5043 55.4277 72.3438 55.8152 72.3438 56.2192C72.3438 56.6233 72.5043 57.0108 72.79 57.2965C73.0757 57.5822 73.4631 57.7427 73.8672 57.7427H96.7335C97.1375 57.7427 97.525 57.5822 97.8107 57.2965C98.0964 57.0108 98.2569 56.6233 98.2569 56.2192C98.2569 55.8152 98.0964 55.4277 97.8107 55.142C97.525 54.8563 97.1375 54.6958 96.7335 54.6958Z" fill="url(#paint6_linear)"/>
<defs>
<linearGradient id="paint0_linear" x1="49.7084" y1="10.8179" x2="49.7084" y2="13.8647" gradientUnits="userSpaceOnUse">
<stop stop-color="#FF9999"/>
<stop offset="0.513542" stop-color="#FF8A8B"/>
<stop offset="1" stop-color="#561E1F"/>
</linearGradient>
<linearGradient id="paint1_linear" x1="49.116" y1="20.4941" x2="49.116" y2="23.541" gradientUnits="userSpaceOnUse">
<stop stop-color="#FF9999"/>
<stop offset="0.513542" stop-color="#FF8A8B"/>
<stop offset="1" stop-color="#561E1F"/>
</linearGradient>
<linearGradient id="paint2_linear" x1="66.0535" y1="30.1709" x2="66.0535" y2="33.2178" gradientUnits="userSpaceOnUse">
<stop stop-color="#FF9999"/>
<stop offset="0.513542" stop-color="#FF8A8B"/>
<stop offset="1" stop-color="#561E1F"/>
</linearGradient>
<linearGradient id="paint3_linear" x1="66.0535" y1="39.8472" x2="66.0535" y2="42.894" gradientUnits="userSpaceOnUse">
<stop stop-color="#FF9999"/>
<stop offset="0.513542" stop-color="#FF8A8B"/>
<stop offset="1" stop-color="#561E1F"/>
</linearGradient>
<linearGradient id="paint4_linear" x1="64.9972" y1="1.26953" x2="64.9972" y2="128.731" gradientUnits="userSpaceOnUse">
<stop stop-color="#FF9999"/>
<stop offset="0.513542" stop-color="#FF8A8B"/>
<stop offset="1" stop-color="#561E1F"/>
</linearGradient>
<linearGradient id="paint5_linear" x1="47.8379" y1="48.2661" x2="47.8379" y2="62.071" gradientUnits="userSpaceOnUse">
<stop stop-color="#FF9999"/>
<stop offset="0.513542" stop-color="#FF8A8B"/>
<stop offset="1" stop-color="#561E1F"/>
</linearGradient>
<linearGradient id="paint6_linear" x1="85.3003" y1="54.6958" x2="85.3003" y2="57.7427" gradientUnits="userSpaceOnUse">
<stop stop-color="#FF9999"/>
<stop offset="0.513542" stop-color="#FF8A8B"/>
<stop offset="1" stop-color="#561E1F"/>
</linearGradient>
</defs>
</svg>
