<svg width="130" height="130" viewBox="0 0 130 130" fill="none" xmlns="http://www.w3.org/2000/svg">
<g clip-path="url(#clip0)">
<path d="M82.615 105.46C102.326 105.46 118.361 89.4247 118.361 69.7141C118.361 50.0036 102.326 33.9678 82.615 33.9678C62.9045 33.9678 46.8687 50.0034 46.8687 69.7141C46.8687 89.4249 62.9045 105.46 82.615 105.46ZM55.9997 67.7989H50.7575C51.1954 60.4383 54.1386 53.7421 58.745 48.5521L62.4411 52.2482C62.8149 52.6223 63.3051 52.8092 63.7951 52.8092C64.2851 52.8092 64.7753 52.6223 65.1491 52.2482C65.8969 51.5003 65.8969 50.2878 65.1491 49.5402L61.453 45.8441C66.643 41.2377 73.3392 38.2946 80.6998 37.8567V43.0988C80.6998 44.1564 81.5569 45.0138 82.6148 45.0138C83.6726 45.0138 84.5297 44.1564 84.5297 43.0988V37.8567C91.8903 38.2946 98.5865 41.2377 103.776 45.8441L100.08 49.5402C99.3323 50.2881 99.3323 51.5006 100.08 52.2482C100.454 52.622 100.944 52.8092 101.434 52.8092C101.924 52.8092 102.415 52.6223 102.789 52.2482L106.485 48.5521C111.091 53.7421 114.034 60.4381 114.472 67.7987H109.23C108.172 67.7987 107.315 68.6561 107.315 69.7136C107.315 70.7712 108.172 71.6286 109.23 71.6286H114.472C114.034 78.9892 111.091 85.6854 106.484 90.8752L102.788 87.1793C102.04 86.4314 100.828 86.4314 100.08 87.1793C99.3323 87.9272 99.3323 89.1397 100.08 89.8873L103.776 93.5834C98.5863 98.1898 91.8903 101.133 84.5297 101.571V96.3287C84.5297 95.2711 83.6726 94.4138 82.6148 94.4138C81.5569 94.4138 80.6998 95.2711 80.6998 96.3287V101.571C73.339 101.133 66.643 98.1898 61.453 93.5834L65.1491 89.8876C65.8969 89.1397 65.8969 87.9272 65.1491 87.1796C64.401 86.4314 63.1887 86.4317 62.4411 87.1796L58.745 90.8754C54.1386 85.6854 51.1954 78.9894 50.7575 71.6286H55.9997C57.0572 71.6286 57.9146 70.7712 57.9146 69.7136C57.9146 68.6563 57.0572 67.7989 55.9997 67.7989Z" fill="url(#paint0_linear)"/>
<path d="M105.834 106.572C98.8934 110.954 90.8643 113.27 82.6149 113.27C58.5983 113.27 39.0594 93.7308 39.0594 69.7142C39.0594 59.9911 42.1923 50.7947 48.1189 43.119C48.7652 42.2821 48.6107 41.0795 47.7735 40.433C46.9365 39.7867 45.7339 39.9412 45.0874 40.7784C38.6381 49.1305 35.2295 59.1362 35.2295 69.7142C35.2295 95.8427 56.4865 117.1 82.6149 117.1C91.5892 117.1 100.325 114.579 107.879 109.81C108.773 109.245 109.04 108.063 108.476 107.168C107.911 106.274 106.729 106.007 105.834 106.572Z" fill="url(#paint1_linear)"/>
<path d="M94.1633 23.7541V16.4951C94.1633 14.5133 92.5509 12.9011 90.5694 12.9011H74.6589C72.677 12.9011 71.0649 14.5133 71.0649 16.4951V23.752C63.4498 25.6598 56.3846 29.4448 50.5041 34.8659C49.7267 35.5829 49.6774 36.7942 50.3941 37.5719C51.1111 38.3494 52.3226 38.3989 53.1001 37.6819C61.161 30.2506 71.6427 26.158 82.6141 26.158C106.631 26.158 126.17 45.6969 126.17 69.7135C126.17 82.041 120.911 93.8448 111.741 102.097C110.955 102.805 110.891 104.016 111.599 104.802C111.977 105.222 112.499 105.436 113.023 105.436C113.479 105.436 113.937 105.274 114.303 104.944C124.278 95.9661 130 83.1249 130 69.7133C130 47.5677 114.728 28.9239 94.1633 23.7541ZM74.8951 22.9564V16.731H90.3337V22.9603C87.8208 22.5466 85.2427 22.3281 82.6146 22.3281C80.0085 22.3281 77.4282 22.5405 74.8951 22.9564Z" fill="url(#paint2_linear)"/>
<path d="M82.6154 71.0545C83.3339 71.0545 83.9589 70.6585 84.2865 70.0733L90.8924 63.4675C91.6402 62.7196 91.6402 61.507 90.8924 60.7592C90.1445 60.0113 88.9322 60.0113 88.1838 60.7592L84.5301 64.4127V55.0871C84.5301 54.0295 83.673 53.1721 82.6152 53.1721C81.5573 53.1721 80.7002 54.0295 80.7002 55.0871V69.1391C80.7005 70.1971 81.5576 71.0545 82.6154 71.0545Z" fill="url(#paint3_linear)"/>
<path d="M28.2584 70.1455C28.2584 69.0879 27.401 68.2305 26.3434 68.2305H1.91496C0.85739 68.2305 0 69.0879 0 70.1455C0 71.203 0.85739 72.0604 1.91496 72.0604H26.3434C27.401 72.0604 28.2584 71.2033 28.2584 70.1455Z" fill="url(#paint4_linear)"/>
<path d="M9.55265 60.909H28.8968C29.9543 60.909 30.8117 60.0516 30.8117 58.994C30.8117 57.9365 29.9543 57.0791 28.8968 57.0791H9.55265C8.49509 57.0791 7.6377 57.9365 7.6377 58.994C7.6377 60.0516 8.49483 60.909 9.55265 60.909Z" fill="url(#paint5_linear)"/>
<path d="M31.4497 45.9258H15.5854C14.5278 45.9258 13.6704 46.7832 13.6704 47.8407C13.6704 48.8983 14.5278 49.7557 15.5854 49.7557H31.4497C32.5072 49.7557 33.3646 48.8983 33.3646 47.8407C33.3646 46.7829 32.5072 45.9258 31.4497 45.9258Z" fill="url(#paint6_linear)"/>
<path d="M39.7793 35H23.915C22.8574 35 22 35.8574 22 36.9149C22 37.9725 22.8574 38.8299 23.915 38.8299H39.7793C40.8368 38.8299 41.6942 37.9725 41.6942 36.9149C41.6942 35.8571 40.8368 35 39.7793 35Z" fill="url(#paint7_linear)"/>
<path d="M52.7793 24H36.915C35.8574 24 35 24.8574 35 25.9149C35 26.9725 35.8574 27.8299 36.915 27.8299H52.7793C53.8368 27.8299 54.6942 26.9725 54.6942 25.9149C54.6942 24.8571 53.8368 24 52.7793 24Z" fill="url(#paint8_linear)"/>
<path d="M30.8115 80.4335C30.8115 79.376 29.9541 78.5186 28.8965 78.5186H9.55265C8.49509 78.5186 7.6377 79.376 7.6377 80.4335C7.6377 81.4911 8.49509 82.3485 9.55265 82.3485H28.8968C29.9541 82.3485 30.8115 81.4911 30.8115 80.4335Z" fill="url(#paint9_linear)"/>
<path d="M31.4497 89.6707H15.5854C14.5278 89.6707 13.6704 90.5281 13.6704 91.5856C13.6704 92.6432 14.5278 93.5006 15.5854 93.5006H31.4497C32.5072 93.5006 33.3646 92.6432 33.3646 91.5856C33.3646 90.5281 32.5072 89.6707 31.4497 89.6707Z" fill="url(#paint10_linear)"/>
</g>
<defs>
<linearGradient id="paint0_linear" x1="82.6149" y1="33.9678" x2="82.6149" y2="105.46" gradientUnits="userSpaceOnUse">
<stop stop-color="#FFBABA"/>
<stop offset="0.45625" stop-color="#FF8A8B"/>
<stop offset="1" stop-color="#561E1F"/>
</linearGradient>
<linearGradient id="paint1_linear" x1="72.0006" y1="40.0337" x2="72.0006" y2="117.1" gradientUnits="userSpaceOnUse">
<stop stop-color="#FFBABA"/>
<stop offset="0.45625" stop-color="#FF8A8B"/>
<stop offset="1" stop-color="#561E1F"/>
</linearGradient>
<linearGradient id="paint2_linear" x1="89.9434" y1="12.9011" x2="89.9434" y2="105.436" gradientUnits="userSpaceOnUse">
<stop stop-color="#FFBABA"/>
<stop offset="0.45625" stop-color="#FF8A8B"/>
<stop offset="1" stop-color="#561E1F"/>
</linearGradient>
<linearGradient id="paint3_linear" x1="86.0767" y1="53.1721" x2="86.0767" y2="71.0545" gradientUnits="userSpaceOnUse">
<stop stop-color="#FFBABA"/>
<stop offset="0.45625" stop-color="#FF8A8B"/>
<stop offset="1" stop-color="#561E1F"/>
</linearGradient>
<linearGradient id="paint4_linear" x1="14.1292" y1="68.2305" x2="14.1292" y2="72.0604" gradientUnits="userSpaceOnUse">
<stop stop-color="#FFBABA"/>
<stop offset="0.45625" stop-color="#FF8A8B"/>
<stop offset="1" stop-color="#561E1F"/>
</linearGradient>
<linearGradient id="paint5_linear" x1="19.2247" y1="57.0791" x2="19.2247" y2="60.909" gradientUnits="userSpaceOnUse">
<stop stop-color="#FFBABA"/>
<stop offset="0.45625" stop-color="#FF8A8B"/>
<stop offset="1" stop-color="#561E1F"/>
</linearGradient>
<linearGradient id="paint6_linear" x1="23.5175" y1="45.9258" x2="23.5175" y2="49.7557" gradientUnits="userSpaceOnUse">
<stop stop-color="#FFBABA"/>
<stop offset="0.45625" stop-color="#FF8A8B"/>
<stop offset="1" stop-color="#561E1F"/>
</linearGradient>
<linearGradient id="paint7_linear" x1="31.8471" y1="35" x2="31.8471" y2="38.8299" gradientUnits="userSpaceOnUse">
<stop stop-color="#FFBABA"/>
<stop offset="0.45625" stop-color="#FF8A8B"/>
<stop offset="1" stop-color="#561E1F"/>
</linearGradient>
<linearGradient id="paint8_linear" x1="44.8471" y1="24" x2="44.8471" y2="27.8299" gradientUnits="userSpaceOnUse">
<stop stop-color="#FFBABA"/>
<stop offset="0.45625" stop-color="#FF8A8B"/>
<stop offset="1" stop-color="#561E1F"/>
</linearGradient>
<linearGradient id="paint9_linear" x1="19.2246" y1="78.5186" x2="19.2246" y2="82.3485" gradientUnits="userSpaceOnUse">
<stop stop-color="#FFBABA"/>
<stop offset="0.45625" stop-color="#FF8A8B"/>
<stop offset="1" stop-color="#561E1F"/>
</linearGradient>
<linearGradient id="paint10_linear" x1="23.5175" y1="89.6707" x2="23.5175" y2="93.5006" gradientUnits="userSpaceOnUse">
<stop stop-color="#FFBABA"/>
<stop offset="0.45625" stop-color="#FF8A8B"/>
<stop offset="1" stop-color="#561E1F"/>
</linearGradient>
<clipPath id="clip0">
<rect width="130" height="130" fill="white"/>
</clipPath>
</defs>
</svg>
