<?xml version="1.0" encoding="UTF-8"?>
<svg width="100px" height="18px" viewBox="0 0 100 18" version="1.1" xmlns="http://www.w3.org/2000/svg" xmlns:xlink="http://www.w3.org/1999/xlink">
    <title>Group 3</title>
    <g id="Page-1" stroke="none" stroke-width="1" fill="none" fill-rule="evenodd">
        <g id="ECOSYSTEM" transform="translate(-950.000000, -3050.000000)" fill="#FFFFFF">
            <g id="FOOTER" transform="translate(-0.000000, 2232.000000)">
                <g id="Group-37" transform="translate(0.000000, -0.000000)">
                    <g id="Group-43" transform="translate(821.000000, 814.151999)">
                        <g id="Group-3" transform="translate(129.000000, 3.999928)">
                            <path d="M74.4434351,12.4180525 C74.2916389,12.4180525 74.1587857,12.5056952 74.0049689,12.6072295 C73.7821157,12.7542267 73.5047067,12.9373419 73.0444351,12.9373419 C72.3053233,12.9373419 71.789149,12.4864155 71.789149,11.8408398 L71.789149,6.66200574 L74.2703386,6.66200574 C74.6015456,6.66200574 74.7748946,6.4082544 74.7748946,6.15761813 C74.7748946,5.90689766 74.6015456,5.65314633 74.2703386,5.65314633 L71.789149,5.65314633 L71.789149,4.18148961 C71.789149,3.85028266 71.5353134,3.677102 71.284593,3.677102 C71.0340409,3.677102 70.7802054,3.85028266 70.7802054,4.18148961 L70.7802054,5.65314633 L69.5394001,5.65314633 C69.2081931,5.65314633 69.0349283,5.90689766 69.0349283,6.15761813 C69.0349283,6.4082544 69.2081931,6.66200574 69.5394001,6.66200574 L70.7802054,6.66200574 L70.7802054,11.8408398 C70.7802054,13.0410651 71.7536204,13.9461171 73.0444351,13.9461171 C73.5810678,13.9461171 74.1538184,13.7518046 74.6157738,13.4130204 L74.6181312,13.4112524 C74.7659704,13.2930484 74.9335102,13.1590165 74.9335102,12.9370052 C74.9335102,12.6606065 74.7045952,12.4180525 74.4434351,12.4180525 L74.4434351,12.4180525 Z M57.5283071,5.50892734 C55.9377728,5.50892734 54.6438431,6.80294128 54.6438431,8.39330715 L54.6438431,13.2974264 C54.6438431,13.6287175 54.8976786,13.8018982 55.1483149,13.8018982 C55.3989511,13.8018982 55.6527867,13.6287175 55.6527867,13.2974264 L55.6527867,8.39330715 C55.6527867,7.35910629 56.4941062,6.51778674 57.5283071,6.51778674 C58.5624238,6.51778674 59.4038275,7.35910629 59.4038275,8.39330715 L59.4038275,13.2974264 C59.4038275,13.6287175 59.6575788,13.8018982 59.9082151,13.8018982 C60.1589356,13.8018982 60.4126869,13.6287175 60.4126869,13.2974264 L60.4126869,8.39330715 C60.4126869,6.80294128 59.1187571,5.50892734 57.5283071,5.50892734 L57.5283071,5.50892734 Z M66.6246274,11.3935336 C66.6246274,12.2880618 65.9146456,12.9373419 64.9365159,12.9373419 C63.9199109,12.9373419 63.2629694,12.3879964 63.2629694,11.5377526 C63.2629694,10.8638887 63.8569361,10.3238884 64.8512305,10.0934579 L66.6246274,9.69456151 L66.6246274,11.3935336 Z M64.9798742,5.50892734 C64.0807997,5.50892734 63.298077,5.84476479 62.8343536,6.42770249 C62.7400598,6.53538264 62.6147838,6.70098612 62.6147838,6.89319391 C62.6147838,7.18634658 62.8830159,7.38318488 63.133568,7.38318488 C63.3133997,7.38318488 63.4326982,7.25647759 63.5707713,7.10990126 C63.8060006,6.8600227 64.1282833,6.51778674 64.9798742,6.51778674 C66.0404268,6.51778674 66.6246274,7.06603781 66.6246274,8.06159505 L66.6246274,8.66667496 C65.9225595,8.81064138 64.8460948,9.04191375 64.8353184,9.04435528 C63.8713328,9.24557151 62.25411,9.83903307 62.25411,11.5523176 C62.25411,13.1970708 63.6520997,13.9461171 64.9510809,13.9461171 C66.4803242,13.9461171 67.6334868,12.8487731 67.6334868,11.3935336 L67.6334868,8.06159505 C67.6334868,6.51088309 66.5918771,5.50892734 64.9798742,5.50892734 L64.9798742,5.50892734 Z M51.6117924,10.7734677 C51.6117924,11.8075002 50.7703887,12.6488198 49.7361879,12.6488198 C48.7020712,12.6488198 47.8606674,11.8075002 47.8606674,10.7734677 L47.8606674,8.39330715 C47.8606674,7.35910629 48.7020712,6.51778674 49.7361879,6.51778674 C50.7703887,6.51778674 51.6117924,7.35910629 51.6117924,8.39330715 L51.6117924,10.7734677 Z M49.7361879,5.50892734 C48.1457378,5.50892734 46.851808,6.80294128 46.851808,8.39330715 L46.851808,10.7734677 C46.851808,12.3638336 48.1457378,13.6576792 49.7361879,13.6576792 C50.4239432,13.6576792 51.0839156,13.4135256 51.6117924,12.9672297 L51.6117924,13.8024033 C51.6117924,14.83652 50.7703887,15.6779237 49.7361879,15.6779237 C49.1160378,15.6779237 48.5673658,15.4708141 48.2290868,15.1076146 C48.1832869,15.0618148 48.1698164,15.0384939 48.1651017,15.03058 C48.0388154,14.8502431 47.8752325,14.8123572 47.7602277,14.8123572 C47.478946,14.8123572 47.2413593,15.0435454 47.2413593,15.3169132 C47.2413593,15.4223202 47.2696474,15.5182136 47.3256344,15.6022361 C47.8052698,16.3143226 48.901351,16.6868673 49.7361879,16.6868673 C51.3267221,16.6868673 52.6206519,15.3929376 52.6206519,13.8024033 L52.6206519,8.39330715 C52.6206519,6.80294128 51.3267221,5.50892734 49.7361879,5.50892734 L49.7361879,5.50892734 Z M77.2071694,5.65314633 C76.9565331,5.65314633 76.7027818,5.82641117 76.7027818,6.15761813 L76.7027818,13.2974264 C76.7027818,13.6287175 76.9565331,13.8018982 77.2071694,13.8018982 C77.4578898,13.8018982 77.711557,13.6287175 77.711557,13.2974264 L77.711557,6.15761813 C77.711557,5.82641117 77.4578898,5.65314633 77.2071694,5.65314633 L77.2071694,5.65314633 Z M97.5827954,9.02659101 C96.7048528,8.68317638 95.9467139,8.38674026 95.9467139,7.64325053 C95.9467139,6.98058405 96.5222428,6.51778674 97.3463032,6.51778674 C97.8565,6.51778674 98.3469961,6.74030326 98.6840122,7.11756263 C98.7269496,7.18929326 98.7582686,7.22355896 98.7591947,7.22355896 C98.7591947,7.22355896 98.7591947,7.22339057 98.7591105,7.22330638 C98.8936475,7.41500903 99.0612716,7.45533647 99.1782127,7.45533647 C99.4230398,7.45533647 99.696997,7.24578535 99.696997,6.9653455 C99.696997,6.87180943 99.6676986,6.77170646 99.6138164,6.68179059 C99.1838535,6.00211756 98.2302234,5.50892734 97.3463032,5.50892734 C96.1494456,5.50892734 94.9379387,6.24206159 94.9379387,7.64325053 C94.9379387,9.1051411 96.1431312,9.57534721 97.2065463,9.9903241 C98.1243112,10.3483879 98.9911406,10.6866669 98.9911406,11.5954234 C98.9911406,12.3729262 98.2569961,12.9373419 97.2453583,12.9373419 C96.701401,12.9373419 96.2050115,12.7456393 95.8823921,12.4100544 L95.8184912,12.3477531 C95.7141787,12.1988195 95.585535,12.1295304 95.4134488,12.1295304 C95.1321671,12.1295304 94.8945804,12.3606343 94.8945804,12.633918 C94.8945804,12.7224868 94.9296038,12.8236842 94.9934205,12.9194093 C95.4477145,13.5935257 96.4702128,13.9461171 97.2453583,13.9461171 C98.8156868,13.9461171 100,12.9355739 100,11.5954234 C100,9.9718021 98.7158364,9.46960346 97.5827954,9.02659101 L97.5827954,9.02659101 Z M88.5916296,8.06159505 C88.5916296,7.16698268 89.3015271,6.51778674 90.2797411,6.51778674 C91.296346,6.51778674 91.9532033,7.0669639 91.9532033,7.91720768 C91.9532033,8.59115574 91.3593208,9.13132447 90.364858,9.36183912 L88.5916296,9.76056717 L88.5916296,8.06159505 Z M90.3808543,10.4106892 C91.3449242,10.2095572 92.9622311,9.61601141 92.9622311,7.90289523 C92.9622311,6.25814205 91.5641572,5.50892734 90.2652602,5.50892734 C88.7360169,5.50892734 87.5827702,6.60627137 87.5827702,8.06159505 L87.5827702,11.3935336 C87.5827702,12.9441614 88.6243798,13.9461171 90.2363828,13.9461171 C91.1354572,13.9461171 91.9181799,13.6103639 92.3818191,13.027342 C92.4761129,12.9196618 92.6015574,12.7542267 92.6015574,12.5618506 C92.6015574,12.2687821 92.333241,12.0718596 92.0826889,12.0718596 C91.9028572,12.0718596 91.7835587,12.1986511 91.6454856,12.3452274 C91.4101721,12.595106 91.0880578,12.9373419 90.2363828,12.9373419 C89.175746,12.9373419 88.5916296,12.3890067 88.5916296,11.3935336 L88.5916296,10.7886221 C89.2937816,10.6446557 90.3702463,10.4131307 90.3808543,10.4106892 L90.3808543,10.4106892 Z M77.2071694,2.40775599 C76.9565331,2.40775599 76.7027818,2.58102084 76.7027818,2.9121436 L76.7027818,4.0660639 C76.7027818,4.39727086 76.9565331,4.5705357 77.2071694,4.5705357 C77.4578898,4.5705357 77.711557,4.39727086 77.711557,4.0660639 L77.711557,2.9121436 C77.711557,2.58102084 77.4578898,2.40775599 77.2071694,2.40775599 L77.2071694,2.40775599 Z M85.4360709,5.65314633 C85.2397378,5.65314633 85.0741343,5.76831946 84.9796721,5.97332427 L82.70997,11.8857977 L80.4401836,5.97315589 C80.3641593,5.77581245 80.1892948,5.65314633 79.9837006,5.65314633 C79.7331486,5.65314633 79.4649164,5.85006881 79.4649164,6.14313729 C79.4649164,6.20939552 79.4804917,6.27211773 79.4984244,6.34191198 L82.238922,13.4815518 C82.331111,13.7274734 82.5071541,13.8742181 82.70997,13.8742181 C82.9127016,13.8742181 83.088829,13.7274734 83.1807654,13.4819728 L85.9201685,6.34511123 C85.9528346,6.27860043 85.969336,6.21065839 85.969336,6.14313729 C85.969336,5.85006881 85.6936108,5.65314633 85.4360709,5.65314633 L85.4360709,5.65314633 Z M13.7869314,10.5608016 C13.7844057,10.5793235 13.782806,10.5980981 13.7823009,10.6169569 C13.6891016,14.0954718 10.8898387,16.8203099 7.40972422,16.8203099 C3.89323922,16.8203099 1.03251705,13.9595035 1.03251705,10.4431027 C1.03251705,6.9265335 3.89323922,4.06564295 7.40972422,4.06564295 C8.36411212,4.06564295 9.28271889,4.27207901 10.1399505,4.67888938 C10.3184352,4.7636696 10.5295859,4.73925424 10.6837395,4.61574621 L10.6841604,4.61549364 C10.6946843,4.60690617 10.7049556,4.59815031 10.7147217,4.58888932 L13.7869314,1.70804552 L13.7869314,10.5608016 Z M14.5083631,0.042497191 C14.3194387,-0.0391679701 14.1001215,-0.00119787975 13.9500933,0.139737666 L10.2583229,3.6014144 C9.3556282,3.22415503 8.39913553,3.03329429 7.40972422,3.03329429 C3.32402463,3.03329429 0,6.35731891 0,10.4431027 C0,14.5287181 3.32402463,17.8527427 7.40972422,17.8527427 C9.35352343,17.8527427 11.1901476,17.105296 12.5812337,15.7482231 C13.9510194,14.4117769 14.7414035,12.62954 14.8119554,10.7217745 C14.8169227,10.6932338 14.8194484,10.6640196 14.8194484,10.6344686 L14.8194484,0.516239316 C14.8194484,0.310560977 14.6972033,0.124330734 14.5083631,0.042497191 L14.5083631,0.042497191 Z M39.5198762,9.02659101 C38.6419336,8.68317638 37.8837105,8.38674026 37.8837105,7.64325053 C37.8837105,6.98058405 38.4592394,6.51778674 39.2832998,6.51778674 C39.7934966,6.51778674 40.2839927,6.74030326 40.6209246,7.11756263 C40.6669771,7.19459729 40.6982119,7.22465344 40.6961071,7.22330638 C40.8306441,7.41500903 40.998184,7.45533647 41.1151251,7.45533647 C41.3600364,7.45533647 41.6339936,7.24578535 41.6339936,6.9653455 C41.6339936,6.87180943 41.6047793,6.77170646 41.550813,6.68179059 C41.1209343,6.00211756 40.1672199,5.50892734 39.2832998,5.50892734 C38.0865263,5.50892734 36.8749353,6.24206159 36.8749353,7.64325053 C36.8749353,9.1051411 38.0801278,9.57534721 39.1435429,9.9903241 C40.0612236,10.3483879 40.9281372,10.6866669 40.9281372,11.5954234 C40.9281372,12.3729262 40.1939085,12.9373419 39.1823549,12.9373419 C38.6383134,12.9373419 38.1419239,12.7456393 37.8193887,12.4100544 L37.7554036,12.3477531 C37.6511753,12.1988195 37.5224474,12.1295304 37.3504454,12.1295304 C37.0692478,12.1295304 36.8316612,12.3606343 36.8316612,12.633918 C36.8316612,12.7224868 36.8666004,12.8238526 36.9304171,12.9194093 C37.3846269,13.5935257 38.4071252,13.9461171 39.1823549,13.9461171 C40.7527676,13.9461171 41.9369966,12.9355739 41.9369966,11.5954234 C41.9369966,9.9718021 40.652833,9.46960346 39.5198762,9.02659101 L39.5198762,9.02659101 Z M30.5286262,8.06159505 C30.5286262,7.16698268 31.2386079,6.51778674 32.2166535,6.51778674 C33.2333426,6.51778674 33.8902841,7.0669639 33.8902841,7.91720768 C33.8902841,8.59115574 33.2964016,9.13132447 32.3019388,9.36183912 L30.5286262,9.76056717 L30.5286262,8.06159505 Z M32.3179351,10.4106892 C33.2819208,10.2095572 34.8992277,9.61601141 34.8992277,7.90289523 C34.8992277,6.25814205 33.5011538,5.50892734 32.2022568,5.50892734 C30.6730135,5.50892734 29.5198509,6.60627137 29.5198509,8.06159505 L29.5198509,11.3935336 C29.5198509,12.9441614 30.5614606,13.9461171 32.1733793,13.9461171 C33.0724538,13.9461171 33.8552607,13.6103639 34.3188157,13.027342 C34.4131937,12.9196618 34.538554,12.7542267 34.538554,12.5618506 C34.538554,12.2687821 34.2702376,12.0718596 34.0196855,12.0718596 C33.8398538,12.0718596 33.7206395,12.1986511 33.5824822,12.3452274 C33.3472529,12.595106 33.0250544,12.9373419 32.1733793,12.9373419 C31.1128267,12.9373419 30.5286262,12.3890067 30.5286262,11.3935336 L30.5286262,10.7886221 C31.230694,10.6446557 32.3072429,10.4131307 32.3179351,10.4106892 L32.3179351,10.4106892 Z M26.3032539,11.0618215 C26.3032539,12.0959382 25.4618502,12.9373419 24.4277335,12.9373419 C23.3935326,12.9373419 22.5521289,12.0959382 22.5521289,11.0618215 L22.5521289,8.39330715 C22.5521289,7.35910629 23.3935326,6.51778674 24.4277335,6.51778674 C25.4618502,6.51778674 26.3032539,7.35910629 26.3032539,8.39330715 L26.3032539,11.0618215 Z M26.8076415,2.40775599 C26.5570052,2.40775599 26.3032539,2.58102084 26.3032539,2.9121436 L26.3032539,6.19929262 C25.7754612,5.75299672 25.1154889,5.50892734 24.4277335,5.50892734 C22.8372834,5.50892734 21.5433537,6.80294128 21.5433537,8.39330715 L21.5433537,11.0618215 C21.5433537,12.6521874 22.8372834,13.9461171 24.4277335,13.9461171 C26.0181835,13.9461171 27.3121133,12.6521874 27.3121133,11.0618215 L27.3121133,2.9121436 C27.3121133,2.58102084 27.058362,2.40775599 26.8076415,2.40775599 L26.8076415,2.40775599 Z M44.3403097,2.40775599 C44.0895892,2.40775599 43.8359221,2.58102084 43.8359221,2.9121436 L43.8359221,4.0660639 C43.8359221,4.39727086 44.0895892,4.5705357 44.3403097,4.5705357 C44.5909459,4.5705357 44.8446973,4.39727086 44.8446973,4.0660639 L44.8446973,2.9121436 C44.8446973,2.58102084 44.5909459,2.40775599 44.3403097,2.40775599 L44.3403097,2.40775599 Z M44.3403097,5.65314633 C44.0895892,5.65314633 43.8359221,5.82641117 43.8359221,6.15761813 L43.8359221,13.2974264 C43.8359221,13.6287175 44.0895892,13.8018982 44.3403097,13.8018982 C44.5909459,13.8018982 44.8446973,13.6287175 44.8446973,13.2974264 L44.8446973,6.15761813 C44.8446973,5.82641117 44.5909459,5.65314633 44.3403097,5.65314633 L44.3403097,5.65314633 Z" id="Fill-1"></path>
                        </g>
                    </g>
                </g>
            </g>
        </g>
    </g>
</svg>