<?xml version="1.0" encoding="utf-8"?>
<!-- Generator: Adobe Illustrator 24.3.0, SVG Export Plug-In . SVG Version: 6.00 Build 0)  -->
<svg version="1.1" id="Layer_1" xmlns="http://www.w3.org/2000/svg" xmlns:xlink="http://www.w3.org/1999/xlink" x="0px" y="0px"
	 viewBox="0 0 24 12" style="enable-background:new 0 0 24 12;" xml:space="preserve">
<g>
	<path d="M19.7,5H1.5c-0.6,0-1,0.4-1,1s0.4,1,1,1h18.2l1-1L19.7,5z"/>
	<path d="M22.9,5.3l-5-5c-0.4-0.4-1-0.4-1.4,0s-0.4,1,0,1.4L19.7,5h2c0.6,0,1,0.4,1,1s-0.4,1-1,1h-2l-3.3,3.3c-0.4,0.4-0.4,1,0,1.4
		c0.2,0.2,0.5,0.3,0.7,0.3s0.5-0.1,0.7-0.3l5-5C23.3,6.3,23.3,5.7,22.9,5.3z"/>
	<path d="M22.7,6c0-0.6-0.4-1-1-1h-2l1,1l-1,1h2C22.3,7,22.7,6.6,22.7,6z"/>
</g>
</svg>
