<?xml version="1.0" encoding="utf-8"?>
<!-- Generator: Adobe Illustrator 24.3.0, SVG Export Plug-In . SVG Version: 6.00 Build 0)  -->
<svg version="1.1" id="Layer_1" xmlns="http://www.w3.org/2000/svg" xmlns:xlink="http://www.w3.org/1999/xlink" x="0px" y="0px"
	 viewBox="0 0 15 18" style="enable-background:new 0 0 15 18;" xml:space="preserve">
<style type="text/css">
	.st0{fill:none;}
	.st1{fill:#FFFFFF;}
</style>
<g>
	<path class="st0" d="M8.6,3.6L8.5,3.7l1.8,0.9L10,4.5C9.4,4.2,8.7,4,8.1,4c-0.6-0.1-1.2,0-1.7,0c0,0-0.1,0-0.1,0l0,0L6.2,4
		c-0.3,0-1,0.2-1.8,0.5C4.1,4.6,3.9,4.7,3.8,4.8C4.3,4.3,5,4,6,3.7L6,3.6l-0.2,0C5,3.6,4.3,3.9,3.6,4.4C2.8,5.9,2.4,7.5,2.4,9.3
		c0.5,0.8,1.3,1.2,2.6,1.3c0.2-0.2,0.4-0.5,0.6-0.7C4.8,9.6,4.3,9.3,4,8.9C4.1,8.9,4.2,9,4.3,9c0,0,0,0,0,0l0,0l0,0c0,0,0,0,0,0
		C4.6,9.2,4.8,9.3,5,9.4c0.3,0.1,0.8,0.3,1.2,0.4c0.6,0.1,1.4,0.2,2.2,0c0.4-0.1,0.8-0.2,1.2-0.4c0.3-0.1,0.6-0.3,1-0.5
		c-0.3,0.5-0.8,0.8-1.5,1c0.2,0.2,0.4,0.4,0.6,0.7c1.2,0,2.1-0.5,2.6-1.3c0-1.8-0.4-3.4-1.2-4.8C10.2,3.8,9.4,3.6,8.6,3.6z M5.7,8.5
		c-0.5,0-0.9-0.4-0.9-0.9c0-0.5,0.4-0.9,0.9-0.9c0.5,0,0.9,0.4,0.9,0.9C6.6,8.1,6.2,8.5,5.7,8.5z M8.8,8.5c-0.5,0-0.9-0.4-0.9-0.9
		c0-0.5,0.4-0.9,0.9-0.9s0.9,0.4,0.9,0.9C9.7,8.1,9.3,8.5,8.8,8.5z"/>
	<path class="st1" d="M5.7,6.7c-0.5,0-0.9,0.4-0.9,0.9c0,0.5,0.4,0.9,0.9,0.9c0.5,0,0.9-0.4,0.9-0.9C6.6,7.1,6.2,6.7,5.7,6.7z"/>
	<ellipse class="st1" cx="8.8" cy="7.6" rx="0.9" ry="0.9"/>
	<path class="st1" d="M13.2,0H1.8C0.8,0,0,0.8,0,1.8v11.6c0,1,0.8,1.8,1.8,1.8h9.7L11,13.5l1.1,1l1,1l1.8,1.6V1.8
		C15,0.8,14.2,0,13.2,0z M9.6,10.5c-0.2-0.2-0.4-0.5-0.6-0.7c0.7-0.2,1.2-0.5,1.5-1c-0.3,0.2-0.7,0.4-1,0.5C9.2,9.5,8.8,9.7,8.4,9.7
		c-0.8,0.1-1.6,0.1-2.2,0C5.7,9.6,5.3,9.5,5,9.4C4.8,9.3,4.6,9.2,4.4,9.1c0,0,0,0,0,0l0,0l0,0c0,0,0,0,0,0C4.2,9,4.1,8.9,4,8.9
		c0.3,0.4,0.8,0.8,1.5,1c-0.2,0.2-0.4,0.4-0.6,0.7c-1.2,0-2.1-0.5-2.6-1.3c0-1.8,0.4-3.4,1.2-4.8C4.3,3.9,5,3.6,5.7,3.6l0.2,0L6,3.7
		C5,4,4.3,4.3,3.8,4.8c0.1-0.1,0.3-0.1,0.5-0.2C5.1,4.2,5.8,4,6.2,4l0.1,0l0,0c0,0,0.1,0,0.1,0c0.5-0.1,1.1-0.1,1.7,0
		C8.7,4,9.4,4.2,10,4.5l0.2,0.1L8.5,3.7l0.1-0.1c0.8,0,1.6,0.3,2.4,0.9c0.8,1.4,1.2,3.1,1.2,4.8C11.7,10.1,10.9,10.5,9.6,10.5z"/>
</g>
</svg>
