<?xml version="1.0" encoding="utf-8"?>
<!-- Generator: Adobe Illustrator 24.3.0, SVG Export Plug-In . SVG Version: 6.00 Build 0)  -->
<svg version="1.1" id="Layer_1" xmlns="http://www.w3.org/2000/svg" xmlns:xlink="http://www.w3.org/1999/xlink" x="0px" y="0px"
	 viewBox="0 0 18 16" style="enable-background:new 0 0 18 16;" xml:space="preserve">
<style type="text/css">
	.st0{fill:#FFFFFF;}
</style>
<path class="st0" d="M9,0C4.4,0,0.8,3.7,0.8,8.2c0,3.6,2.4,6.7,5.6,7.8c0.4,0.1,0.6-0.2,0.6-0.4v-1.4c-1.5,0.3-2.4,0-2.8-1.1
	c-0.2-0.6-0.5-1-0.9-1.2c-0.5-0.3-0.5-0.5,0.1-0.5c0.5,0,1,0.3,1.3,0.9c0.8,1.3,1.9,0.9,2.4,0.7C7,12.4,7.2,12,7.4,11.8
	c-1.8-0.2-3.7-0.9-3.7-4.1c0-0.9,0.3-1.6,0.9-2.2c-0.1-0.2-0.3-1,0.1-2.1c0.5-0.1,1.2,0.2,2.3,0.9C7.6,4.1,8.3,4,9,4
	s1.4,0.1,2.1,0.3c1-0.7,1.8-1,2.3-0.9c0.4,1,0.2,1.8,0.1,2.1c0,0,0,0,0,0.1c0.5,0.6,0.9,1.3,0.9,2.2c0,3.2-1.9,3.8-3.7,4
	c0.3,0.3,0.6,0.8,0.6,1.5v2.3c0,0.2,0.2,0.5,0.6,0.4c3.3-1.1,5.6-4.2,5.6-7.8C17.2,3.7,13.5,0,9,0z"/>
</svg>
