<?xml version="1.0" encoding="utf-8"?>
<!-- Generator: Adobe Illustrator 24.3.0, SVG Export Plug-In . SVG Version: 6.00 Build 0)  -->
<svg version="1.1" id="Layer_1" xmlns="http://www.w3.org/2000/svg" xmlns:xlink="http://www.w3.org/1999/xlink" x="0px" y="0px"
	 viewBox="0 0 15 15" style="enable-background:new 0 0 15 15;" xml:space="preserve">
<style type="text/css">
	.st0{fill:none;}
</style>
<g>
	<circle class="st0" cx="7.5" cy="7.5" r="2.4"/>
	<path class="st0" d="M7.5,1C3.9,1,1,3.9,1,7.5S3.9,14,7.5,14S14,11.1,14,7.5S11.1,1,7.5,1z M7.5,10.9c-1.9,0-3.4-1.5-3.4-3.4
		s1.5-3.4,3.4-3.4s3.4,1.5,3.4,3.4S9.4,10.9,7.5,10.9z"/>
	<path d="M7.5,4.1c-1.9,0-3.4,1.5-3.4,3.4s1.5,3.4,3.4,3.4s3.4-1.5,3.4-3.4S9.4,4.1,7.5,4.1z M7.5,9.9c-1.3,0-2.4-1.1-2.4-2.4
		c0-1.3,1.1-2.4,2.4-2.4c1.3,0,2.4,1.1,2.4,2.4C9.9,8.8,8.8,9.9,7.5,9.9z"/>
	<path d="M7.5,0C3.4,0,0,3.4,0,7.5S3.4,15,7.5,15S15,11.6,15,7.5S11.6,0,7.5,0z M7.5,14C3.9,14,1,11.1,1,7.5S3.9,1,7.5,1
		S14,3.9,14,7.5S11.1,14,7.5,14z"/>
</g>
</svg>
