<?xml version="1.0" encoding="utf-8"?>
<!-- Generator: Adobe Illustrator 24.3.0, SVG Export Plug-In . SVG Version: 6.00 Build 0)  -->
<svg version="1.1" id="Layer_1" xmlns="http://www.w3.org/2000/svg" xmlns:xlink="http://www.w3.org/1999/xlink" x="0px" y="0px"
	 viewBox="0 0 16 16" style="enable-background:new 0 0 16 16;" xml:space="preserve">
<g id="Page-1">
	<g id="SUBPAGE" transform="translate(-745.000000, -1300.000000)">
		<g id="Group-15" transform="translate(380.000000, 1283.000000)">
			<g id="Group-4" transform="translate(30.000000, 0.000000)">
				<path d="M349.3,32.7l-2.8-2.8c-1.2,0.9-2.7,1.4-4.3,1.4c-4,0-7.2-3.2-7.2-7.2c0-4,3.2-7.2,7.2-7.2c4,0,7.2,3.2,7.2,7.2
					c0,1.6-0.5,3.1-1.4,4.3l2.8,2.8L349.3,32.7z M342.2,19c-2.9,0-5.2,2.3-5.2,5.2c0,2.9,2.3,5.2,5.2,5.2s5.2-2.3,5.2-5.2
					C347.4,21.3,345,19,342.2,19z"/>
			</g>
		</g>
	</g>
</g>
</svg>
