<?xml version="1.0" encoding="utf-8"?>
<!-- Generator: Adobe Illustrator 24.3.0, SVG Export Plug-In . SVG Version: 6.00 Build 0)  -->
<svg version="1.1" id="Layer_1" xmlns="http://www.w3.org/2000/svg" xmlns:xlink="http://www.w3.org/1999/xlink" x="0px" y="0px"
	 viewBox="0 0 22 22" style="enable-background:new 0 0 22 22;" xml:space="preserve">
<path d="M11,0.8C5.2,0.8,0.5,5.4,0.5,11.2c0,4.6,3,8.5,7.1,10c0.5,0.1,0.7-0.3,0.7-0.5v-1.8c-1.9,0.4-3.1,0-3.5-1.4
	c-0.3-0.8-0.7-1.3-1.2-1.5C3,15.5,3,15.3,3.7,15.3c0.7,0,1.2,0.4,1.6,1.1c1,1.6,2.4,1.2,3,0.9c0.1-0.7,0.4-1.2,0.6-1.4
	c-2.3-0.3-4.8-1.2-4.8-5.2c0-1.2,0.4-2.1,1.1-2.8l0,0C5.2,7.6,4.9,6.5,5.4,5.1C6,4.9,7,5.3,8.3,6.2C9.2,6,10.1,5.9,11,5.9
	s1.8,0.1,2.6,0.3c1.3-0.9,2.3-1.3,2.9-1.1c0.5,1.3,0.2,2.3,0.1,2.7c0,0,0,0.1,0,0.1c0.6,0.7,1.1,1.7,1.1,2.8c0,4-2.4,4.9-4.8,5.1
	c0.4,0.3,0.7,1,0.7,1.9v2.9c0,0.3,0.2,0.6,0.7,0.5c4.2-1.4,7.1-5.3,7.1-10C21.4,5.4,16.7,0.8,11,0.8z"/>
</svg>
