<?xml version="1.0" encoding="utf-8"?>
<!-- Generator: Adobe Illustrator 24.3.0, SVG Export Plug-In . SVG Version: 6.00 Build 0)  -->
<svg version="1.1" id="Layer_1" xmlns="http://www.w3.org/2000/svg" xmlns:xlink="http://www.w3.org/1999/xlink" x="0px" y="0px"
	 viewBox="0 0 20 22" style="enable-background:new 0 0 20 22;" xml:space="preserve">
<style type="text/css">
	.st0{fill:none;}
</style>
<g>
	<path class="st0" d="M11.7,5.7l-0.1,0.2l2.6,1.3c-1.1-0.6-2.2-0.9-3.2-1c-0.8-0.1-1.5-0.1-2.1,0c-0.1,0-0.1,0-0.2,0l0,0
		c-0.4,0-1.3,0.2-2.4,0.7C6.1,7,5.9,7.1,5.7,7.2c0.6-0.6,1.5-1,2.8-1.4L8.4,5.7c-1,0-1.9,0.3-3,1.1c-1,1.8-1.5,3.9-1.5,6.1
		c0.6,1,1.7,1.5,3.2,1.6c0.3-0.3,0.5-0.6,0.7-0.9C6.9,13.4,6.3,13,6,12.4c0.1,0,0.2,0.1,0.3,0.2c0,0,0,0,0,0c0,0,0,0,0,0s0,0,0,0
		C6.7,12.8,7,12.9,7.2,13c0.4,0.2,0.9,0.3,1.5,0.5c0.8,0.1,1.7,0.2,2.7,0c0.5-0.1,1-0.2,1.5-0.5c0.4-0.1,0.8-0.3,1.2-0.6
		c-0.4,0.6-1,1-1.9,1.2c0.2,0.3,0.4,0.5,0.7,0.9c1.5,0,2.6-0.6,3.2-1.6c0-2.3-0.5-4.3-1.5-6.1C13.7,6.1,12.7,5.7,11.7,5.7z M8.1,12
		C7.5,12,7,11.4,7,10.8c0-0.6,0.5-1.2,1.1-1.2s1.1,0.5,1.1,1.2C9.2,11.4,8.7,12,8.1,12z M11.9,12c-0.6,0-1.1-0.5-1.1-1.2
		c0-0.6,0.5-1.2,1.1-1.2s1.1,0.5,1.1,1.2C13,11.4,12.5,12,11.9,12z"/>
	<path d="M8.1,9.6C7.5,9.6,7,10.1,7,10.8C7,11.4,7.5,12,8.1,12c0.6,0,1.1-0.5,1.1-1.2C9.2,10.1,8.7,9.6,8.1,9.6z"/>
	<path d="M17,0.8H3c-1.2,0-2.2,1-2.2,2.2v14.2c0,1.2,1,2.2,2.2,2.2h11.9l-0.6-1.9l1.3,1.2l1.3,1.2l2.3,2V3C19.2,1.8,18.2,0.8,17,0.8
		z M13,14.5c-0.3-0.3-0.5-0.6-0.7-0.9c0.9-0.3,1.6-0.7,1.9-1.2c-0.4,0.3-0.8,0.5-1.2,0.6c-0.5,0.2-1,0.4-1.5,0.5
		c-1,0.2-1.9,0.1-2.7,0c-0.6-0.1-1.1-0.3-1.5-0.5c-0.2-0.1-0.5-0.2-0.8-0.4c0,0,0,0,0,0s0,0,0,0c0,0,0,0,0,0
		c-0.1-0.1-0.2-0.1-0.3-0.2c0.3,0.6,0.9,1,1.8,1.2c-0.2,0.3-0.4,0.6-0.7,0.9c-1.5,0-2.6-0.6-3.2-1.6c0-2.3,0.5-4.3,1.5-6.1
		c1-0.8,2-1.1,3-1.1l0.1,0.1C7.2,6.2,6.3,6.7,5.7,7.2C5.9,7.1,6.1,7,6.4,6.9c1.1-0.5,2-0.6,2.4-0.7l0,0c0.1,0,0.1,0,0.2,0
		c0.6-0.1,1.4-0.1,2.1,0c1,0.1,2.1,0.4,3.2,1l-2.6-1.3l0.1-0.2c1,0,1.9,0.3,3,1.1c1,1.8,1.5,3.9,1.5,6.1
		C15.6,13.9,14.5,14.5,13,14.5z"/>
	<path d="M11.9,9.6c-0.6,0-1.1,0.5-1.1,1.2c0,0.6,0.5,1.2,1.1,1.2c0.6,0,1.1-0.5,1.1-1.2C13,10.1,12.5,9.6,11.9,9.6z"/>
</g>
</svg>
