<?xml version="1.0" encoding="utf-8"?>
<!-- Generator: Adobe Illustrator 24.3.0, SVG Export Plug-In . SVG Version: 6.00 Build 0)  -->
<svg version="1.1" id="Layer_1" xmlns="http://www.w3.org/2000/svg" xmlns:xlink="http://www.w3.org/1999/xlink" x="0px" y="0px"
	 viewBox="0 0 22 18" style="enable-background:new 0 0 22 18;" xml:space="preserve">
<path d="M19,3.1c0.9-0.5,1.6-1.3,1.8-2.4c-0.8,0.5-1.7,0.8-2.8,1c-0.8-0.8-2-1.3-3.2-1.3c-2.8,0-4.9,2.6-4.2,5.2
	C7.2,5.6,4,3.9,1.8,1.3C0.6,3.2,1.3,5.7,3.1,7c-0.7,0-1.3-0.3-2-0.5c0,2,1.4,3.8,3.4,4.3c-0.7,0.1-1.3,0.3-2,0.1
	c0.5,1.7,2.1,3,4.1,3c-1.6,1.2-3.9,1.8-6.2,1.6c2,1.2,4.2,2,6.6,2c8,0,12.5-6.7,12.2-12.9c0.9-0.5,1.7-1.3,2.2-2.2
	C20.7,2.8,19.9,3,19,3.1z"/>
</svg>
