<?xml version="1.0" encoding="utf-8"?>
<!-- Generator: Adobe Illustrator 24.3.0, SVG Export Plug-In . SVG Version: 6.00 Build 0)  -->
<svg version="1.1" id="Layer_1" xmlns="http://www.w3.org/2000/svg" xmlns:xlink="http://www.w3.org/1999/xlink" x="0px" y="0px"
	 viewBox="0 0 22 18" style="enable-background:new 0 0 22 18;" xml:space="preserve">
<path d="M21.1,0.9c0-0.2-0.1-0.4-0.3-0.5c-0.2-0.2-0.6-0.2-0.7-0.2c-0.7,0-1.8,0.4-7.2,2.6C11,3.5,7.3,5.2,1.6,7.6
	C0.7,8,0.2,8.3,0.2,8.7C0.1,9.3,0.9,9.5,1.9,9.8C2,9.9,2.1,9.9,2.3,10c1,0.3,2.3,0.7,3,0.7c0.6,0,1.3-0.2,2.1-0.8
	c5.3-3.6,8-5.4,8.2-5.4c0.1,0,0.3-0.1,0.4,0C16.1,4.6,16,4.8,16,4.9c-0.1,0.3-3,3-4.5,4.4c-0.5,0.4-0.8,0.7-0.9,0.8
	c-0.2,0.2-0.3,0.3-0.5,0.4c-0.9,0.9-1.6,1.5,0,2.6c0.8,0.5,1.4,1,2.1,1.4c0.7,0.5,1.4,0.9,2.3,1.5c0.2,0.1,0.4,0.3,0.7,0.5
	c0.8,0.6,1.5,1.1,2.4,1c0.5,0,1.1-0.5,1.3-2c0.6-3.4,1.9-10.8,2.2-13.9C21.2,1.4,21.2,1,21.1,0.9z"/>
</svg>
