<?xml version="1.0" encoding="utf-8"?>
<!-- Generator: Adobe Illustrator 24.3.0, SVG Export Plug-In . SVG Version: 6.00 Build 0)  -->
<svg version="1.1" id="Layer_1" xmlns="http://www.w3.org/2000/svg" xmlns:xlink="http://www.w3.org/1999/xlink" x="0px" y="0px"
	 viewBox="0 0 22 22" style="enable-background:new 0 0 22 22;" xml:space="preserve">
<style type="text/css">
	.st0{fill:none;}
	.st1{fill:#FFFFFF;}
</style>
<g>
	<path class="st0" d="M0,11v11h11C4.9,22,0,17.1,0,11z"/>
	<path class="st0" d="M11,22h11V11C22,17.1,17.1,22,11,22z"/>
	<path class="st0" d="M11,0H0v11C0,4.9,4.9,0,11,0z"/>
	<path class="st0" d="M11,0c6.1,0,11,4.9,11,11V0H11z"/>
	<path class="st0" d="M16.2,6.7c-0.4,0.3-0.9,0.4-1.4,0.5c-0.4-0.4-1-0.7-1.7-0.7c-1.4,0-2.5,1.4-2.2,2.8C9,9.2,7.4,8.3,6.2,6.9
		c-0.6,1-0.3,2.3,0.7,3c-0.3,0-0.7-0.1-1-0.3c0,1,0.8,2,1.8,2.3c-0.3,0.1-0.7,0.1-1,0.1c0.3,0.9,1.1,1.6,2.1,1.6
		c-0.8,0.6-2.1,1-3.2,0.8c1,0.6,2.2,1,3.4,1c4.2,0,6.5-3.5,6.4-6.7c0.5-0.3,0.9-0.7,1.2-1.2c-0.4,0.2-0.8,0.3-1.3,0.3
		C15.7,7.6,16,7.2,16.2,6.7z"/>
	<path class="st1" d="M11,0C4.9,0,0,4.9,0,11s4.9,11,11,11s11-4.9,11-11S17.1,0,11,0z M15.3,8.7c0.1,3.2-2.2,6.7-6.4,6.7
		c-1.2,0-2.4-0.4-3.4-1c1.2,0.1,2.4-0.2,3.2-0.8c-1,0-1.9-0.7-2.1-1.6c0.3,0.1,0.7,0,1-0.1c-1-0.3-1.8-1.2-1.8-2.3
		c0.3,0.1,0.7,0.3,1,0.3c-1-0.7-1.3-2-0.7-3C7.4,8.3,9,9.2,10.9,9.3c-0.3-1.4,0.8-2.8,2.2-2.8c0.6,0,1.2,0.3,1.7,0.7
		c0.5-0.1,1-0.3,1.4-0.5c-0.1,0.5-0.5,1-1,1.2c0.5-0.1,0.9-0.1,1.3-0.3C16.2,8,15.8,8.5,15.3,8.7z"/>
</g>
</svg>
