<?xml version="1.0" encoding="utf-8"?>
<!-- Generator: Adobe Illustrator 24.3.0, SVG Export Plug-In . SVG Version: 6.00 Build 0)  -->
<svg version="1.1" id="Layer_1" xmlns="http://www.w3.org/2000/svg" xmlns:xlink="http://www.w3.org/1999/xlink" x="0px" y="0px"
	 viewBox="0 0 12 12" style="enable-background:new 0 0 12 12;" xml:space="preserve">
<path d="M6.2,0.5C6.2,0.5,6.2,0.5,6.2,0.5C6.2,0.5,6.2,0.5,6.2,0.5C3.2,0.5,0.7,3,0.7,6c0,3,2.5,5.5,5.5,5.5c0,0,0,0,0,0
	c0,0,0,0,0,0c0,0,0,0,0,0c3,0,5.5-2.5,5.5-5.5C11.7,3,9.3,0.5,6.2,0.5z M6.2,10.4c-0.4-0.2-1.1-0.9-1.5-2.3h3.1
	C7.3,9.6,6.6,10.2,6.2,10.4z M4.5,7.2c0-0.4-0.1-0.7-0.1-1.2c0-0.4,0-0.8,0.1-1.2H8C8,5.2,8.1,5.6,8.1,6c0,0.4,0,0.8-0.1,1.2H4.5z
	 M1.7,6c0-0.4,0.1-0.8,0.2-1.2h1.6c0,0.4-0.1,0.7-0.1,1.2c0,0.4,0,0.8,0.1,1.2H1.9C1.8,6.8,1.7,6.4,1.7,6z M6.2,1.6
	c0.4,0.2,1.1,0.9,1.5,2.3H4.7C5.1,2.4,5.9,1.8,6.2,1.6z M9,4.8h1.6c0.1,0.4,0.2,0.8,0.2,1.2c0,0.4-0.1,0.8-0.2,1.2H9
	C9,6.8,9.1,6.4,9.1,6C9.1,5.6,9,5.2,9,4.8z M10.1,3.8H8.8C8.6,3,8.2,2.3,7.9,1.8C8.9,2.2,9.6,2.9,10.1,3.8z M4.6,1.8
	C4.2,2.3,3.9,3,3.7,3.8H2.3C2.8,2.9,3.6,2.2,4.6,1.8z M2.3,8.2h1.3c0.2,0.9,0.6,1.5,0.9,2C3.6,9.8,2.8,9.1,2.3,8.2z M7.9,10.2
	c0.4-0.5,0.7-1.1,0.9-2h1.3C9.6,9.1,8.9,9.8,7.9,10.2z"/>
</svg>
