<svg width="1322" height="1322" viewBox="0 0 1322 1322" fill="none" xmlns="http://www.w3.org/2000/svg">
<path d="M660.743 1313.93C1025.66 1313.93 1321.49 1021.37 1321.49 660.48C1321.49 299.587 1025.66 7.02494 660.743 7.02494C295.825 7.02494 0 299.587 0 660.48C0 1021.37 295.825 1313.93 660.743 1313.93Z" fill="white"/>
<path d="M1308.56 660.743C1308.56 1018.52 1018.52 1308.56 660.743 1308.56C302.965 1308.56 12.9278 1018.52 12.9278 660.743C12.9278 302.965 302.965 12.9278 660.743 12.9278C1018.52 12.9278 1308.56 302.965 1308.56 660.743Z" fill="black" stroke="white" stroke-width="25.8556"/>
<path fill-rule="evenodd" clip-rule="evenodd" d="M682.387 400.16C682.387 387.683 672.95 377.568 661.309 377.568C661.309 377.568 661.297 377.568 661.284 377.568C649.655 377.568 640.219 387.683 640.219 400.16C640.219 491.196 640.219 830.715 640.219 921.766C640.219 934.243 649.655 944.358 661.284 944.358C661.297 944.358 661.309 944.358 661.309 944.358C672.95 944.358 682.387 934.243 682.387 921.766C682.387 830.715 682.387 491.196 682.387 400.16Z" fill="white"/>
<path fill-rule="evenodd" clip-rule="evenodd" d="M597.244 830.03C585.608 830.02 576.164 840.126 576.154 852.604C576.154 852.604 576.154 852.617 576.154 852.63C576.145 865.095 585.573 875.218 597.209 875.228C629.58 875.257 691.188 875.312 723.56 875.341C735.2 875.351 744.644 865.245 744.654 852.78C744.654 852.767 744.654 852.754 744.654 852.754C744.663 840.276 735.235 830.153 723.595 830.143C691.223 830.114 629.615 830.059 597.244 830.03Z" fill="white"/>
<path fill-rule="evenodd" clip-rule="evenodd" d="M493.069 534.533C481.425 534.523 471.988 544.629 471.978 557.107C471.978 557.107 471.978 557.12 471.978 557.133C471.969 569.598 481.39 579.721 493.034 579.731C559.193 579.79 762.261 579.971 828.42 580.03C840.055 580.04 849.501 569.934 849.511 557.469C849.511 557.456 849.511 557.443 849.511 557.443C849.521 544.965 840.09 534.842 828.455 534.832C762.296 534.773 559.228 534.592 493.069 534.533Z" fill="white"/>
<path fill-rule="evenodd" clip-rule="evenodd" d="M562.559 420.342C554.32 411.529 540.975 411.545 532.752 420.378C532.752 420.378 532.744 420.388 532.735 420.397C524.521 429.22 524.535 443.524 532.774 452.336C578.155 500.874 714.219 646.399 759.6 694.936C767.839 703.749 781.184 703.733 789.398 694.909C789.407 694.9 789.415 694.891 789.415 694.891C797.638 686.058 797.625 671.755 789.385 662.942C744.004 614.405 607.94 468.879 562.559 420.342Z" fill="white"/>
<path fill-rule="evenodd" clip-rule="evenodd" d="M533.046 663.329C524.83 672.167 524.854 686.47 533.1 695.278C533.1 695.278 533.109 695.287 533.118 695.297C541.355 704.095 554.699 704.071 562.916 695.233C608.169 646.559 743.848 500.622 789.102 451.948C797.318 443.111 797.294 428.808 789.057 420.009C789.048 420 789.039 419.99 789.039 419.99C780.793 411.182 767.449 411.207 759.232 420.044C713.979 468.718 578.3 614.655 533.046 663.329Z" fill="white"/>
<path d="M660.743 1242.2C981.871 1242.2 1242.2 981.871 1242.2 660.743C1242.2 339.615 981.871 79.2892 660.743 79.2892C339.615 79.2892 79.2891 339.615 79.2891 660.743C79.2891 981.871 339.615 1242.2 660.743 1242.2Z" stroke="#F0827D" stroke-width="14.8532"/>
</svg>