<svg width="839" height="262" viewBox="0 0 839 262" fill="none" xmlns="http://www.w3.org/2000/svg">
    <path d="M111.896 82.4494C111.896 159.625 111.808 165.25 110.313 170.612C106.27 185.028 96.5133 194.521 82.6252 197.422C69.9677 200.146 55.9918 195.488 44.9165 184.852C41.5763 181.6 37.9724 177.381 37.0934 175.535C36.1266 173.777 34.896 172.282 34.2807 172.282C33.6654 172.282 25.7545 179.754 16.6129 188.895L0 205.596L2.46118 208.936C14.5913 224.934 38.0603 238.822 60.8262 243.481C71.462 245.59 88.075 245.854 98.7987 243.92C127.893 238.822 151.45 218.078 159.361 190.741C160.416 187.137 161.734 183.358 162.262 182.391C163.053 181.072 163.405 158.218 163.58 90.2724L163.844 -1.52588e-05H137.826H111.896V82.4494Z"
          fill="url(#paint0_linear)"/>
    <path d="M800.849 56.7829L786.346 71.462L775.446 66.1002C767.448 62.1447 761.91 60.123 754.526 58.3651C745.121 56.1676 743.627 56.0797 727.717 56.4313C712.862 56.8708 710.049 57.1345 703.193 59.244C643.158 77.2634 614.415 139.584 641.928 192.411C643.949 196.191 646.674 200.85 648.081 202.783L650.63 206.124L634.28 222.561L617.931 238.91L629.006 250.161L640.082 261.5L656.695 244.975L673.308 228.362L680.691 232.405C689.393 237.064 699.853 241.195 707.852 243.129C715.499 245.063 739.056 245.766 747.055 244.448C766.92 241.019 785.379 231.878 799.531 218.254C823.879 194.785 834.075 163.844 827.746 131.849C825.901 122.18 820.275 109.171 813.507 99.0624L809.551 92.9973L823.791 78.7577L838.031 64.518L826.955 53.6185C820.89 47.5535 815.792 42.5432 815.616 42.3674C815.441 42.2795 808.848 48.6961 800.849 56.7829ZM738.968 99.7655C745.737 101.172 752.681 103.633 752.681 104.512C752.681 104.864 737.65 120.158 719.279 138.441C688.163 169.382 685.701 171.579 684.647 169.997C680.691 164.371 679.285 147.231 682.01 136.771C682.801 133.87 683.68 131.233 684.031 130.97C684.383 130.706 685.877 128.333 687.284 125.784C694.579 112.159 710.049 101.348 724.992 99.326C732.552 98.3592 732.376 98.3592 738.968 99.7655ZM779.402 138.617C783.885 155.757 777.556 175.886 763.756 188.632C748.989 202.432 729.827 205.86 711.983 197.949L706.797 195.751L740.99 161.559L775.095 127.454L776.589 130.354C777.38 131.937 778.699 135.628 779.402 138.617Z"
          fill="url(#paint1_linear)"/>
    <path d="M515.792 56.7829C509.375 58.1893 505.244 59.5956 498.652 62.76C492.675 65.6607 489.598 67.8582 483.533 73.9232L475.798 81.4825V70.583V59.7714H449.868H423.938V150.747V241.723L449.692 241.547L475.359 241.283L475.798 184.149L476.237 127.014L479.226 120.686C485.467 107.237 498.3 99.326 513.595 99.326C524.406 99.326 531.878 102.578 538.558 109.962C542.865 114.708 544.447 117.697 546.821 125.256C547.963 129.036 548.227 137.914 548.491 185.643L548.842 241.723H573.454H597.978V180.369C597.89 124.026 597.802 118.488 596.308 111.192C592.264 91.9425 584.441 78.7576 570.817 68.4734C558.335 58.9803 549.194 56.2555 530.295 56.3434C523.264 56.4313 516.759 56.6071 515.792 56.7829Z"
          fill="url(#paint2_linear)"/>
    <path d="M208.584 122.883C208.584 174.04 208.848 187.049 209.815 191.884C210.518 195.136 211.485 198.301 211.925 198.916C212.364 199.531 213.243 201.553 213.858 203.487C219.22 220.451 235.657 236.273 254.292 242.602C262.467 245.414 282.068 246.118 291.649 243.92C306.065 240.756 317.579 234.163 326.281 224.407L330.764 219.308V230.472V241.723H356.255H381.746V150.747V59.7714H356.255H330.764V112.159C330.764 168.678 330.413 173.952 326.369 181.951C317.492 199.355 294.814 207.178 277.673 198.74C267.213 193.642 260.884 184.325 258.687 170.964C258.16 167.975 257.808 142.924 257.808 112.687V59.7714H233.196H208.584V122.883Z"
          fill="url(#paint3_linear)"/>
    <defs>
        <linearGradient id="paint0_linear" x1="785" y1="269.5" x2="81.922" y2="-2.33409e-05"
                        gradientUnits="userSpaceOnUse">
            <stop stop-color="white"/>
            <stop offset="1" stop-color="#FFC1B6"/>
        </linearGradient>
        <linearGradient id="paint1_linear" x1="911" y1="262" x2="411.5" y2="-89.5" gradientUnits="userSpaceOnUse">
            <stop stop-color="white"/>
            <stop offset="1" stop-color="#FFC1B6"/>
        </linearGradient>
        <linearGradient id="paint2_linear" x1="667" y1="242" x2="277" y2="-44.5" gradientUnits="userSpaceOnUse">
            <stop stop-color="white"/>
            <stop offset="1" stop-color="#FFC1B6"/>
        </linearGradient>
        <linearGradient id="paint3_linear" x1="479" y1="278" x2="232" y2="60" gradientUnits="userSpaceOnUse">
            <stop stop-color="white"/>
            <stop offset="1" stop-color="#FFC1B6"/>
        </linearGradient>
    </defs>
</svg>
